<svg xmlns="http://www.w3.org/2000/svg" xmlns:xlink="http://www.w3.org/1999/xlink" viewBox="0 0 845.8 488.32"><defs><style>.cls-1{mix-blend-mode:multiply;fill:url(#radial-gradient);}.cls-2{fill:none;}.cls-3{mask:url(#mask);}.cls-4{opacity:0.5;}.cls-5{clip-path:url(#clip-path);}.cls-6{fill:#f0f0f0;}.cls-7{filter:url(#luminosity-noclip);}</style><radialGradient id="radial-gradient" cx="422.83" cy="221.83" r="245.69" gradientTransform="matrix(1, 0.02, -0.01, 0.58, 1.68, 59.44)" gradientUnits="userSpaceOnUse"><stop offset="0" stop-opacity="0"/><stop offset="0.97"/></radialGradient><filter id="luminosity-noclip" x="-176.66" y="-115.94" width="1123.53" height="582.24" filterUnits="userSpaceOnUse" color-interpolation-filters="sRGB"><feFlood flood-color="#fff" result="bg"/><feBlend in="SourceGraphic" in2="bg"/></filter><mask id="mask" x="-102.06" y="-69.96" width="1123.53" height="582.24" maskUnits="userSpaceOnUse"><g class="cls-7"><g transform="translate(74.59 45.98)"><ellipse class="cls-1" cx="385.11" cy="175.18" rx="561.76" ry="291.12"/></g></g></mask><clipPath id="clip-path" transform="translate(74.59 45.98)"><path class="cls-2" d="M354.05,406.49a35,35,0,0,1-17-4.21L6,211.15c-3.43-2-5.63-4.39-6-6.51v-1.08c.32-1.86,2.3-3.25,3.48-3.93l341-196.85C347.55,1,352,0,357,0A35.16,35.16,0,0,1,374,4.22L705.07,195.35c3.94,2.27,6.23,5.1,6,7.4-.16,1.42-1.41,2.89-3.54,4.12L366.6,403.7C363.48,405.5,359,406.49,354.05,406.49Z"/></clipPath></defs><g id="Layer_2" data-name="Layer 2"><g id="OBJECTS"><g class="cls-3"><g class="cls-4"><g class="cls-5"><path class="cls-6" d="M763,237.18l8.19-4.73-3-6.49-10.83-1.69L754.4,218l-10.83-1.7-2.93-6.25-10.83-1.69-2.94-6.26L716,200.43l-2.93-6.25-10.83-1.7-2.93-6.25-10.83-1.69-2.94-6.26-10.83-1.69-2.93-6.25L661,168.64l-2.94-6.25-10.83-1.69-2.93-6.26-10.83-1.69-2.93-6.25-10.83-1.7-2.94-6.25-10.83-1.69L603,130.6l-10.83-1.69-2.94-6.25L578.4,121l-2.93-6.25L564.64,113l-2.93-6.26-10.83-1.69-2.94-6.25-10.83-1.7-2.93-6.25-10.83-1.69-2.94-6.25-10.83-1.7L506.65,75l-10.83-1.7L492.89,67l-10.83-1.69-2.94-6.25-10.83-1.7-2.93-6.25-10.83-1.7-2.94-6.25L440.76,41.5l-2.93-6.25L427,33.55l-2.93-6.25-10.83-1.7-2.94-6.25-10.83-1.69-2.93-6.25-10.83-1.7-2.93-6.25L371.94,1.77,369-4.49,358.18-6.18l-2.93-6.25-10.83-1.7-2.94-6.25-10.83-1.69-2.93-6.26L316.89-30,314-36.27,303.12-38l-2.93-6.25L289-46l-8.19,4.73L283.71-35l-7.61,4.39L265.27-32.3l-8.19,4.73L260-21.32l-7.6,4.39-10.83-1.69-8.19,4.73,2.93,6.25-7.6,4.39L217.89-4.94,209.7-.22,212.63,6,205,10.43,194.2,8.73,186,13.46l2.93,6.26-7.6,4.39-10.83-1.7-8.19,4.73,2.93,6.25-7.61,4.39-10.83-1.69-8.18,4.73,2.93,6.25L134,51.46l-10.83-1.69-8.19,4.73,2.94,6.25-7.61,4.39L99.43,63.45l-8.19,4.72,2.94,6.26-7.61,4.39-10.83-1.7-8.19,4.73,2.94,6.26L62.88,92.5,52.05,90.8l-8.19,4.73,2.94,6.25-7.61,4.4-10.83-1.7-8.19,4.73,2.93,6.25-7.6,4.39L4.67,118.16l-8.19,4.73,2.93,6.25-7.6,4.39L-19,131.84l-8.19,4.73,2.93,6.25-7.6,4.39-10.83-1.69-8.19,4.72L-48,156.5l-7.6,4.39-10.84-1.7-8.18,4.73,3,6.48,10.83,1.7,2.93,6.25,10.83,1.7L-44,186.3-33.19,188l2.93,6.25,10.83,1.7,2.93,6.25,10.83,1.7,2.94,6.25L8.1,211.83,11,218.08l10.83,1.7L24.8,226l10.83,1.7L38.56,234l10.83,1.69,2.93,6.25,10.83,1.7,2.94,6.25,10.83,1.7,2.93,6.25,10.83,1.69,2.94,6.25,10.83,1.7,2.93,6.25,10.83,1.7,2.93,6.25L132,283.35l2.94,6.25,10.83,1.7,2.93,6.25,10.83,1.69,2.94,6.26,10.83,1.69,2.93,6.25,10.83,1.7,2.93,6.25,10.83,1.69,2.94,6.26L214.56,331l2.93,6.25,10.83,1.7,2.94,6.25,10.82,1.69,2.94,6.26,10.83,1.69,2.93,6.25,10.83,1.7,2.94,6.25,10.83,1.69,2.93,6.26,10.83,1.69,2.94,6.25,10.82,1.7,2.94,6.25,10.83,1.69,2.93,6.26,10.83,1.69,2.94,6.25,10.83,1.7,2.93,6.25L366,418.44l2.93,6.26,10.83,1.69,2.94,6.25,10.83,1.7,2.93,6.25,11.23,1.76,8.19-4.73-2.93-6.25,7.6-4.4,10.83,1.7,8.19-4.73-2.93-6.25,7.6-4.39L455,415l8.19-4.73L460.29,404l7.61-4.39,10.83,1.69,8.18-4.73L484,390.33l7.61-4.39,10.83,1.69,8.19-4.72-2.94-6.26,7.61-4.39,10.83,1.7,8.19-4.73L531.36,363l7.61-4.4,10.83,1.7,8.19-4.73-2.94-6.25,7.61-4.39,10.83,1.69,8.19-4.73-2.93-6.25,7.6-4.39,10.83,1.69,8.19-4.73-2.93-6.25,7.6-4.39,10.83,1.69,8.19-4.72-2.93-6.26,7.6-4.39,10.83,1.7,8.19-4.73-2.93-6.25,7.6-4.4,10.83,1.7,8.19-4.73-2.93-6.25,7.61-4.39L692,278.21l8.18-4.73-2.93-6.25,7.61-4.39,10.83,1.69,8.19-4.73-2.94-6.25,7.61-4.39,10.83,1.69,8.19-4.72-2.94-6.26,7.61-4.39Zm7.39-4.86-7.61,4.39-10.43-1.63-1.41-3-1.41-3,7.6-4.39,10.43,1.63Zm-18.73,2.87-7.61,4.39-5.21-.82-5.22-.81-1.41-3-1.41-3,7.6-4.39,5.22.81,5.21.82,1.42,3ZM728,248.87l-7.61,4.39-5.21-.82-5.22-.81-1.41-3-1.41-3,7.6-4.39L720,242l5.21.81,1.42,3ZM704.3,262.54l-7.61,4.4-5.21-.82-5.22-.82-1.41-3-1.41-3,7.6-4.39,5.22.82,5.21.81,1.42,3Zm-23.69,13.68L673,280.61l-5.21-.81-5.22-.82-1.41-3-1.41-3,7.6-4.39,5.22.81,5.21.82,1.41,3ZM656.92,289.9l-7.61,4.39-5.21-.81-5.22-.82-1.41-3-1.42-3,7.61-4.39,5.22.81,5.21.82,1.41,3Zm-23.7,13.68-7.6,4.39-5.22-.82-5.21-.81-1.41-3-1.42-3,7.61-4.39,5.21.81,5.22.82,1.41,3Zm-23.69,13.68-7.6,4.39-5.22-.82L591.5,320l-1.41-3-1.42-3,7.61-4.39,5.21.82,5.22.81,1.41,3Zm-23.69,13.68-7.6,4.39-5.22-.82-5.21-.82-1.42-3-1.41-3,7.61-4.39,5.21.82,5.22.81,1.41,3Zm-23.69,13.67-7.6,4.39-5.22-.81-5.21-.82-1.42-3-1.41-3L548.9,337l5.21.82,5.22.81,1.41,3Zm-23.69,13.68-7.6,4.39-5.22-.81-5.22-.82L519,358l-1.41-3,7.6-4.39,5.22.81,5.21.82,1.42,3ZM514.77,372l-7.61,4.39-5.21-.82-5.22-.81-1.41-3-1.41-3,7.6-4.39,5.22.81,5.21.82,1.42,3Zm-23.69,13.68L483.47,390l-5.21-.82-5.22-.81-1.41-3-1.41-3,7.6-4.39,5.22.82,5.21.82,1.42,3Zm-23.69,13.68-7.61,4.39-5.21-.82-5.22-.82-1.41-3-1.41-3,7.6-4.39,5.22.82,5.21.81,1.41,3ZM443.7,413l-7.61,4.39-5.21-.81-5.22-.82-1.41-3-1.41-3,7.6-4.39,5.22.82,5.21.81,1.41,3ZM420,426.68l-7.6,4.39-5.22-.81-5.21-.82-1.41-3-1.42-3,7.61-4.39,5.21.81,5.22.82,1.41,3Zm-31.79-5.19-1.42-3-1.41-3,7.61-4.39,5.21.82,5.22.81,1.41,3,1.41,3-7.6,4.4-5.22-.82Zm-13.77-7.94-1.41-3-1.41-3,7.6-4.4,5.22.82,5.21.82,1.41,3,1.42,3-7.61,4.39-5.21-.82Zm-13.76-7.95-1.42-3-1.41-3,7.61-4.39,5.21.81,5.22.82,1.41,3,1.41,3-7.6,4.39-5.22-.81Zm-13.77-8-1.41-3-1.41-3,7.6-4.39,5.22.82,5.21.81,1.42,3,1.41,3-7.61,4.4-5.21-.82Zm-13.76-7.94-1.41-3-1.42-3,7.61-4.39,5.21.81,5.22.82,1.41,3,1.42,3-7.61,4.39-5.22-.82Zm-13.76-7.95-1.42-3-1.41-3,7.61-4.39,5.21.81,5.22.82,1.41,3,1.41,3-7.6,4.39-5.22-.81Zm-13.77-7.95-1.41-3-1.41-3,7.6-4.39,5.22.82,5.21.81,1.41,3,1.42,3-7.61,4.39-5.21-.82Zm-13.76-7.94-1.42-3-1.41-3,7.61-4.39,5.21.81,5.22.82,1.41,3,1.41,3-7.6,4.39-5.22-.82Zm-13.77-7.95-1.41-3-1.41-3,7.6-4.39,5.22.81,5.21.82,1.42,3,1.41,3-7.61,4.39-5.21-.81ZM264.33,350l-1.41-3-1.42-3,7.61-4.39,5.21.82,5.22.81,1.41,3,1.42,3-7.61,4.39-5.22-.82Zm-13.76-8-1.42-3-1.41-3,7.61-4.39,5.21.81,5.22.82,1.41,3,1.41,3-7.6,4.39-5.22-.82Zm-13.77-7.95-1.41-3-1.41-3,7.6-4.39,5.22.81,5.21.82,1.42,3,1.41,3-7.61,4.39L242,334.9ZM223,326.14l-1.42-3-1.41-3,7.61-4.39,5.21.82,5.22.81,1.41,3,1.41,3-7.6,4.39-5.22-.82Zm-13.77-7.95-1.41-3-1.41-3,7.6-4.39,5.22.81,5.21.82,1.42,3,1.41,3-7.61,4.39-5.21-.82Zm-13.76-7.95-1.41-3-1.42-3,7.61-4.39,5.22.81,5.21.82,1.41,3,1.42,3-7.61,4.39-5.21-.81Zm-13.76-7.94-1.42-3-1.41-3,7.61-4.39,5.21.82,5.22.81,1.41,3,1.41,3-7.6,4.39-5.22-.82ZM168,294.35l-1.41-3-1.41-3,7.6-4.39,5.22.81,5.21.82,1.42,3,1.41,3L178.41,296l-5.21-.82Zm-13.76-8-1.41-3-1.42-3L159,276l5.21.81,5.22.82,1.41,3,1.41,3-7.6,4.39-5.22-.81Zm-13.77-7.94-1.41-3-1.41-3,7.6-4.39,5.22.82,5.21.81,1.42,3,1.41,3-7.61,4.39-5.21-.82Zm-13.76-7.95-1.41-3-1.42-3,7.61-4.39,5.22.81,5.21.82,1.41,3,1.42,3-7.61,4.39-5.21-.82Zm-13.76-7.95-1.42-3-1.41-3,7.61-4.39,5.21.81,5.22.82,1.41,3,1.41,3-7.6,4.39-5.22-.81Zm-13.77-7.94-1.41-3-1.41-3,7.6-4.39,5.22.82,5.21.81,1.42,3,1.41,3-7.61,4.39-5.21-.82Zm-13.76-8-1.41-3-1.42-3,7.61-4.39,5.21.81,5.22.82,1.41,3,1.41,3-7.6,4.39-5.22-.82Zm-13.77-7.95-1.41-3-1.41-3,7.6-4.39,5.22.81,5.21.82,1.42,3,1.41,3-7.61,4.39-5.21-.81Zm-13.76-7.94-1.41-3-1.41-3,7.6-4.39,5.22.82,5.21.81,1.41,3,1.42,3-7.61,4.39-5.21-.82Zm-13.76-7.95-1.42-3-1.41-3,7.61-4.39,5.21.81,5.22.82,1.41,3,1.41,3-7.6,4.39-5.22-.82Zm-13.77-8-1.41-3-1.41-3,7.6-4.39,5.22.81,5.21.82,1.42,3,1.41,3-7.61,4.39-5.21-.81Zm-13.76-7.94-1.41-3-1.42-3,7.61-4.39,5.21.82,5.22.81,1.41,3,1.41,3L27,208.57l-5.22-.82ZM2.81,199,1.4,196,0,193l7.6-4.39,5.22.81,5.22.82,1.41,3,1.41,3-7.6,4.39L8,199.8Zm-13.76-8-1.41-3-1.41-3,7.6-4.39,5.22.82,5.21.81,1.41,3,1.42,3-7.61,4.39-5.21-.81Zm-13.76-7.94-1.42-3-1.41-3,7.61-4.39,5.21.82,5.22.81,1.41,3,1.41,3-7.6,4.39-5.22-.82Zm-13.77-7.95-1.41-3-1.41-3,7.6-4.39,5.22.81,5.21.82,1.42,3,1.41,3L-28,176.78l-5.21-.82Zm-13.76-8-1.41-3-1.42-3,7.61-4.39,5.21.82,5.22.81,1.41,3,1.41,3-7.6,4.39L-47,168Zm20.86-19.7,7.61-4.39,5.22.82,5.21.81,1.41,3,1.42,3-7.61,4.4-5.21-.82-5.22-.82-1.41-3Zm23.7-13.68,7.6-4.39,5.22.82,5.21.81,1.41,3,1.42,3-7.61,4.39-5.21-.82-5.22-.81-1.41-3ZM16,120.15l7.6-4.39,5.22.81,5.21.82,1.42,3,1.41,3-7.61,4.39L24.05,127l-5.22-.81-1.41-3ZM39.7,106.47l7.6-4.39,5.22.81,5.21.82,1.42,3,1.41,3L53,114.12l-5.21-.81-5.22-.82-1.41-3ZM63.39,92.79,71,88.4l5.22.82,5.21.81,1.42,3,1.41,3-7.6,4.39-5.22-.81-5.22-.82-1.41-3ZM87.08,79.11l7.6-4.39,5.22.82,5.22.81,1.41,3,1.41,3-7.6,4.4L95.12,86l-5.21-.82-1.42-3Zm23.69-13.68L118.38,61l5.21.82,5.22.81,1.41,3,1.41,3L124,73.09l-5.22-.82-5.21-.81-1.42-3Zm23.69-13.67,7.61-4.39,5.21.81,5.22.82,1.41,3,1.41,3-7.6,4.39-5.22-.82-5.21-.81-1.42-3Zm23.69-13.68,7.61-4.39,5.21.81,5.22.82,1.41,3,1.41,3-7.6,4.39-5.22-.81L161,44.1l-1.41-3ZM181.84,24.4,189.45,20l5.21.81,5.22.82,1.41,3,1.42,3-7.61,4.39-5.22-.81-5.21-.82-1.41-3Zm23.7-13.68,7.6-4.39,5.22.82,5.21.81L225,11l1.42,3-7.61,4.4-5.21-.82-5.22-.82-1.41-3ZM229.23-3l7.6-4.39,5.22.82,5.21.81,1.42,3,1.41,3L242.48,4.7l-5.21-.82-5.22-.81-1.41-3Zm23.69-13.67,7.6-4.4,5.22.82,5.21.82,1.42,3,1.41,3L266.17-9,261-9.8l-5.22-.81-1.41-3Zm23.69-13.68,7.6-4.39,5.22.81,5.21.82,1.42,3,1.41,3-7.61,4.39-5.21-.81-5.22-.82-1.41-3Zm31.8,5.18,1.41,3,1.41,3-7.6,4.39-5.22-.82-5.21-.81-1.41-3-1.42-3L298-26.76l5.21.82Zm13.76,8,1.42,3,1.41,3-7.61,4.39-5.21-.81L307-8.4l-1.41-3-1.41-3,7.6-4.39L317-18Zm13.77,8,1.41,3,1.41,3-7.6,4.39L325.94.37l-5.21-.82-1.42-3-1.41-3,7.61-4.39,5.21.81ZM349.7-1.29l1.41,3,1.42,3-7.61,4.39-5.22-.82-5.21-.81-1.41-3-1.42-3,7.61-4.39,5.21.82Zm13.76,8,1.42,3,1.41,3-7.61,4.39-5.21-.81-5.22-.82-1.41-3-1.41-3L353,5l5.22.82Zm13.77,8,1.41,3,1.41,3L372.45,25l-5.22-.81L362,23.39l-1.42-3-1.41-3L366.8,13l5.21.81ZM391,22.55l1.41,3,1.42,3L386.21,33,381,32.15l-5.22-.81-1.41-3-1.41-3,7.6-4.39,5.22.82Zm13.77,8,1.41,3,1.41,3L400,40.91l-5.22-.81-5.21-.82-1.42-3-1.41-3,7.61-4.39,5.21.82Zm13.76,8,1.41,3,1.42,3-7.61,4.39-5.22-.81-5.21-.82-1.41-3-1.42-3,7.61-4.39,5.21.81Zm13.76,7.94,1.42,3,1.41,3-7.61,4.39L422.29,56l-5.22-.81-1.41-3-1.41-3,7.6-4.39,5.22.82Zm13.77,8,1.41,3,1.41,3-7.6,4.39-5.22-.81-5.21-.82-1.42-3-1.41-3,7.61-4.39,5.21.82Zm13.76,7.95,1.41,3,1.42,3L455,72.7l-5.21-.81-5.22-.82-1.41-3-1.41-3,7.6-4.39,5.22.81Zm13.77,7.94,1.41,3,1.41,3-7.6,4.39-5.22-.82L458.37,79,457,76l-1.41-3,7.61-4.39,5.21.82Zm13.76,8,1.41,3,1.41,3-7.6,4.39-5.22-.81L472.13,87l-1.41-3-1.42-3,7.61-4.39,5.21.82Zm13.76,7.95,1.42,3,1.41,3-7.61,4.39-5.21-.82-5.22-.81-1.41-3-1.41-3,7.6-4.39,5.22.81Zm13.77,7.94,1.41,3,1.41,3-7.6,4.39-5.22-.82-5.21-.81-1.42-3-1.41-3,7.61-4.39,5.21.82Zm13.76,8,1.41,3,1.42,3-7.61,4.39-5.21-.81-5.22-.82-1.41-3-1.41-3,7.6-4.39,5.22.81Zm13.77,8,1.41,3,1.41,3-7.6,4.39-5.22-.82-5.22-.81-1.41-3-1.41-3,7.61-4.39,5.21.81Zm13.76,7.94,1.41,3,1.41,3-7.6,4.39-5.22-.82L541,126.7l-1.41-3-1.42-3,7.61-4.39,5.21.82Zm13.76,8,1.42,3,1.41,3-7.61,4.39-5.21-.81-5.22-.82-1.41-3-1.41-3,7.6-4.39,5.22.81Zm13.77,8,1.41,3,1.41,3-7.6,4.39-5.22-.82-5.21-.81-1.42-3-1.41-3,7.61-4.39,5.21.81Zm13.76,7.94,1.41,3,1.42,3-7.61,4.39-5.21-.82-5.22-.81-1.41-3-1.41-3,7.6-4.39,5.22.82Zm13.77,7.95,1.41,3,1.41,3-7.6,4.39-5.22-.81-5.22-.82-1.41-3-1.41-3,7.6-4.39,5.22.81Zm13.76,8,1.41,3,1.41,3-7.6,4.39-5.22-.82-5.21-.81-1.41-3-1.42-3,7.61-4.39,5.21.81Zm13.76,7.94,1.42,3,1.41,3L634,176l-5.21-.82-5.22-.81-1.41-3-1.41-3,7.6-4.39,5.22.82Zm13.77,7.95,1.41,3,1.41,3-7.6,4.39-5.22-.81-5.21-.82-1.42-3-1.41-3,7.61-4.39,5.21.81Zm13.76,8,1.41,3,1.42,3-7.61,4.39-5.21-.82-5.22-.81-1.41-3-1.41-3,7.6-4.39,5.22.81ZM680,189.43l1.41,3,1.41,3-7.6,4.39L670,199l-5.22-.81-1.41-3-1.41-3,7.6-4.39,5.22.82Zm13.76,7.95,1.41,3,1.41,3-7.6,4.39L683.8,207l-5.21-.82-1.41-3-1.42-3,7.61-4.39,5.21.81Zm13.76,8,1.42,3,1.41,3-7.61,4.39-5.21-.82-5.22-.81-1.41-3-1.41-3,7.6-4.39,5.22.81Zm13.77,7.94,1.41,3,1.41,3-7.6,4.39-5.22-.82-5.21-.81-1.42-3-1.41-3,7.61-4.39,5.21.82Zm13.76,7.95,1.41,3,1.42,3-7.61,4.39-5.21-.81-5.22-.82-1.41-3-1.41-3,7.6-4.39,5.22.81ZM733,238.05l-7.6,4.4-5.22-.82-5.21-.82-1.42-3-1.41-3,7.61-4.39,5.21.82,5.22.81,1.41,3Zm-23.69,13.68-7.6,4.39-5.22-.81-5.21-.82-1.42-3-1.41-3,7.61-4.39,5.21.81,5.22.82,1.41,3Zm-23.69,13.68L678,269.8l-5.22-.81-5.22-.82-1.41-3-1.41-3,7.61-4.39,5.21.81,5.22.82,1.41,3Zm-23.69,13.68-7.61,4.39-5.21-.82-5.22-.81-1.41-3-1.41-3,7.6-4.39,5.22.81,5.21.82,1.42,3Zm-23.69,13.68-7.61,4.39-5.21-.82-5.22-.81-1.41-3-1.41-3,7.6-4.39,5.22.82,5.21.81,1.42,3ZM614.5,306.44l-7.61,4.4-5.21-.82-5.22-.82-1.41-3-1.41-3,7.6-4.39,5.22.82,5.21.81,1.41,3Zm-23.69,13.68-7.61,4.39L578,323.7l-5.22-.82-1.41-3-1.41-3,7.6-4.39,5.22.82,5.21.81,1.41,3Zm-23.7,13.68-7.6,4.39-5.22-.81-5.21-.82-1.41-3-1.42-3,7.61-4.39,5.21.81,5.22.82,1.41,3Zm-23.69,13.68-7.6,4.39-5.22-.82-5.21-.81-1.41-3-1.42-3,7.61-4.39,5.21.81,5.22.82,1.41,3Zm-23.69,13.68-7.6,4.39-5.22-.82-5.21-.81-1.42-3-1.41-3,7.61-4.39,5.21.82,5.22.81,1.41,3ZM496,374.83l-7.6,4.4-5.22-.82-5.21-.82-1.42-3-1.41-3,7.61-4.39L488,368l5.22.81,1.41,3Zm-23.69,13.68-7.6,4.39-5.22-.81-5.22-.82-1.41-3-1.41-3,7.61-4.39,5.21.82,5.22.81,1.41,3Zm-23.69,13.68-7.61,4.39-5.21-.81-5.22-.82-1.41-3-1.41-3,7.6-4.39,5.22.81,5.21.82,1.42,3ZM425,415.87l-7.61,4.39-5.21-.82-5.22-.81-1.41-3-1.41-3,7.6-4.39,5.22.81,5.21.82,1.42,3Zm-31.8-5.19-1.41-3-1.42-3,7.61-4.39,5.21.81,5.22.82,1.41,3,1.41,3-7.6,4.39-5.22-.81Zm-13.77-7.94-1.41-3-1.41-3,7.6-4.39,5.22.82,5.22.81,1.41,3,1.41,3-7.6,4.39-5.22-.82Zm-13.76-7.95-1.41-3-1.41-3,7.6-4.39,5.22.81,5.21.82,1.41,3,1.42,3-7.61,4.39-5.21-.82Zm-13.76-8-1.42-3-1.41-3,7.61-4.39,5.21.81,5.22.82,1.41,3,1.41,3-7.6,4.39-5.22-.81Zm-13.77-7.94-1.41-3-1.41-3,7.6-4.39,5.22.82,5.21.81,1.42,3,1.41,3-7.61,4.39-5.21-.82ZM324.35,371l-1.41-3-1.42-3,7.61-4.39,5.21.81,5.22.82,1.41,3,1.41,3-7.6,4.39-5.22-.82ZM310.58,363l-1.41-3-1.41-3,7.6-4.39,5.22.81,5.22.82,1.41,3,1.41,3-7.6,4.39-5.22-.81Zm-13.76-7.94-1.41-3L294,349l7.6-4.39,5.22.82,5.21.81,1.41,3,1.42,3-7.61,4.39-5.21-.82Zm-13.76-7.95-1.42-3-1.41-3,7.61-4.39,5.21.81,5.22.82,1.41,3,1.41,3-7.6,4.39-5.22-.82Zm-13.77-7.95-1.41-3-1.41-3,7.6-4.39,5.22.81,5.21.82,1.42,3,1.41,3-7.61,4.39-5.21-.81Zm-13.76-7.94-1.41-3-1.42-3,7.61-4.39,5.21.82,5.22.81,1.41,3,1.41,3-7.6,4.39-5.22-.82Zm-13.76-8-1.42-3-1.41-3,7.61-4.39,5.21.81,5.22.82,1.41,3,1.41,3-7.6,4.39-5.22-.81ZM228,315.32l-1.41-3-1.41-3,7.6-4.39,5.22.82,5.21.81,1.41,3,1.42,3L238.43,317l-5.21-.81Zm-13.76-7.94-1.42-3-1.41-3L219,297l5.21.82,5.22.81,1.41,3,1.41,3-7.6,4.39-5.22-.82Zm-13.77-7.95-1.41-3-1.41-3,7.6-4.39,5.22.81,5.21.82,1.42,3,1.41,3-7.61,4.39-5.21-.81Zm-13.76-7.95-1.41-3-1.42-3,7.61-4.39,5.21.82,5.22.81,1.41,3,1.42,3-7.61,4.39-5.22-.81ZM173,283.54l-1.42-3-1.41-3,7.61-4.39,5.21.82,5.22.81,1.41,3,1.41,3-7.6,4.39-5.22-.82Zm-13.77-8-1.41-3-1.41-3,7.6-4.39,5.22.81,5.21.82,1.41,3,1.42,3-7.61,4.39-5.21-.81Zm-13.76-7.95-1.41-3-1.42-3,7.61-4.39,5.21.82,5.22.81,1.41,3,1.41,3-7.6,4.39-5.22-.81Zm-13.77-7.94-1.41-3-1.41-3,7.6-4.39,5.22.82,5.21.81,1.42,3,1.41,3-7.61,4.39-5.21-.82Zm-13.76-7.95-1.41-3-1.42-3,7.61-4.39,5.22.81,5.21.82,1.41,3,1.42,3-7.61,4.39-5.22-.81Zm-13.76-7.95-1.42-3-1.41-3,7.61-4.39,5.21.82,5.22.81,1.41,3,1.41,3-7.6,4.39-5.22-.81Zm-13.77-7.94-1.41-3-1.41-3,7.6-4.39,5.22.82,5.21.81,1.42,3,1.41,3-7.61,4.39-5.21-.82Zm-13.76-8-1.41-3-1.42-3,7.61-4.39,5.21.81,5.22.82,1.41,3,1.41,3L87,229.54l-5.22-.81ZM62.83,220l-1.41-3-1.41-3,7.6-4.39,5.22.82,5.21.81,1.42,3,1.41,3-7.61,4.39-5.21-.81ZM49.07,212l-1.41-3-1.42-3,7.61-4.39,5.22.82,5.21.81,1.41,3,1.42,3-7.61,4.39-5.21-.82Zm-13.76-8-1.42-3-1.41-3,7.61-4.39,5.21.81,5.22.82,1.41,3,1.41,3-7.6,4.39-5.22-.81Zm-13.77-7.95-1.41-3-1.41-3,7.6-4.39,5.22.82,5.21.81,1.42,3,1.41,3L32,197.75l-5.21-.81ZM7.78,188.18l-1.41-3-1.42-3,7.61-4.39,5.21.82,5.22.81,1.41,3,1.41,3-7.6,4.39L13,189Zm-13.77-8-1.41-3-1.41-3,7.6-4.39,5.22.81,5.22.82,1.41,3,1.41,3-7.6,4.39-5.22-.81Zm-13.76-7.95-1.41-3-1.42-3,7.61-4.39,5.22.82,5.21.81,1.41,3,1.42,3-7.61,4.39-5.21-.81Zm-13.76-7.94-1.42-3-1.41-3,7.61-4.39,5.21.82,5.22.82,1.41,3,1.41,3-7.6,4.39-5.22-.82Zm20.86-19.7L-5,140.25l5.21.81,5.22.82,1.41,3,1.41,3-7.6,4.39-5.22-.82-5.21-.81-1.42-3ZM11,131l7.61-4.39,5.21.81,5.22.82,1.41,3,1.41,3-7.6,4.39-5.22-.81L13.87,137l-1.41-3Zm23.69-13.68,7.61-4.39,5.22.82,5.21.81,1.41,3,1.42,3L48,124.93l-5.22-.81-5.21-.82-1.41-3Zm23.7-13.68L66,99.21l5.22.82,5.21.81,1.41,3,1.42,3-7.61,4.4-5.21-.82-5.22-.82-1.41-3ZM82.12,89.92l7.6-4.39,5.22.82,5.21.81,1.41,3,1.42,3-7.61,4.39-5.21-.82L84.94,96l-1.41-3Zm23.69-13.67,7.6-4.39,5.22.81,5.21.82,1.42,3,1.41,3-7.61,4.39-5.21-.82-5.22-.81-1.41-3ZM129.5,62.57l7.6-4.39,5.22.81,5.21.82,1.42,3,1.41,3-7.61,4.39-5.21-.81-5.22-.82-1.41-3Zm23.69-13.68,7.6-4.39,5.22.82,5.22.81,1.41,3,1.41,3-7.6,4.39-5.22-.81L156,54.91l-1.41-3Zm23.69-13.68,7.61-4.39,5.21.82,5.22.81,1.41,3,1.41,3-7.6,4.4-5.22-.82-5.21-.82-1.42-3Zm23.69-13.68,7.61-4.39,5.21.82,5.22.81,1.41,3,1.41,3-7.6,4.39-5.22-.82-5.21-.81-1.42-3ZM224.26,7.86l7.61-4.39,5.21.81,5.22.82,1.41,3,1.41,3-7.6,4.39-5.22-.82-5.21-.81-1.41-3ZM248-5.82l7.61-4.39,5.21.81,5.22.82,1.41,3,1.42,3-7.61,4.39L256,1,250.78.2l-1.41-3ZM271.64-19.5l7.61-4.39,5.22.81,5.21.82,1.41,3,1.42,3-7.61,4.39-5.21-.81-5.22-.82-1.41-3Zm31.8,5.19,1.42,3,1.41,3L298.66-3.9l-5.21-.82-5.22-.81-1.41-3-1.41-3,7.6-4.39,5.22.81Zm13.77,7.94,1.41,3,1.41,3-7.6,4.39-5.22-.82L302,2.42l-1.41-3-1.42-3L306.78-8l5.21.82Zm13.76,8,1.42,3,1.41,3L326.19,12,321,11.18l-5.22-.82-1.41-3-1.41-3L320.54,0l5.22.81Zm13.77,8,1.41,3,1.41,3L340,19.94l-5.22-.82-5.21-.81-1.42-3-1.41-3,7.61-4.39,5.21.81Zm13.76,7.94,1.41,3,1.42,3-7.61,4.39-5.22-.82-5.21-.81-1.41-3-1.42-3,7.61-4.39,5.22.82Zm13.76,8,1.42,3,1.41,3-7.61,4.39L362.27,35l-5.22-.82-1.41-3-1.41-3,7.6-4.39,5.22.81ZM386,33.37l1.41,3,1.41,3-7.6,4.39L376,43l-5.21-.81-1.41-3-1.42-3,7.61-4.39,5.21.81Zm13.76,7.94,1.42,3,1.41,3L395,51.73l-5.21-.82-5.22-.81-1.41-3-1.41-3,7.6-4.39,5.22.82Zm13.77,7.95,1.41,3,1.41,3-7.6,4.39-5.22-.81L398.35,58l-1.42-3-1.41-3,7.61-4.39,5.21.81Zm13.76,8,1.41,3,1.42,3-7.61,4.39-5.22-.82L412.11,66l-1.41-3-1.42-3,7.61-4.39,5.22.81Zm13.76,7.94,1.42,3,1.41,3-7.61,4.39-5.21-.82-5.22-.81-1.41-3-1.41-3,7.6-4.39,5.22.82Zm13.77,7.95,1.41,3,1.41,3-7.6,4.39-5.22-.81-5.21-.82-1.42-3-1.41-3,7.61-4.39,5.21.81Zm13.76,8,1.42,3,1.41,3-7.61,4.39-5.21-.82-5.22-.81-1.41-3-1.41-3,7.6-4.39,5.22.81ZM482.38,89l1.41,3,1.41,3-7.6,4.39-5.22-.82-5.21-.82-1.42-3-1.41-3L472,87.36l5.21.82Zm13.76,8,1.41,3,1.42,3-7.61,4.39-5.22-.81-5.21-.82-1.41-3-1.42-3,7.61-4.39,5.22.81Zm13.76,8,1.42,3,1.41,3-7.61,4.39-5.21-.82-5.22-.81-1.41-3-1.41-3,7.6-4.39,5.22.81Zm13.77,7.94,1.41,3,1.41,3-7.6,4.4-5.22-.82-5.21-.82-1.42-3-1.41-3,7.61-4.39,5.21.82Zm13.76,8,1.41,3,1.42,3-7.61,4.39-5.21-.81-5.22-.82-1.41-3-1.41-3,7.6-4.39,5.22.81Zm13.77,7.95,1.41,3,1.41,3-7.6,4.39-5.22-.82-5.22-.81-1.41-3-1.41-3,7.61-4.4,5.21.82ZM565,136.67l1.41,3,1.42,3-7.61,4.4-5.22-.82-5.21-.82-1.41-3-1.42-3,7.61-4.39,5.21.82Zm13.76,8,1.42,3,1.41,3L573.94,155l-5.21-.81-5.22-.82-1.41-3-1.41-3,7.6-4.39,5.22.81Zm13.77,7.95,1.41,3,1.41,3-7.6,4.39-5.22-.82-5.21-.81-1.42-3-1.41-3,7.61-4.4,5.21.82Zm13.76,7.94,1.41,3,1.42,3-7.61,4.4-5.21-.82-5.22-.82-1.41-3-1.41-3,7.6-4.39,5.22.82Zm13.77,8,1.41,3,1.41,3-7.6,4.39-5.22-.81-5.22-.82-1.41-3-1.41-3,7.61-4.39,5.21.81Zm13.76,7.95,1.41,3,1.42,3L629,186.82l-5.22-.82-5.21-.81-1.41-3-1.42-3,7.61-4.4,5.21.82Zm13.76,7.94,1.42,3,1.41,3-7.61,4.4-5.21-.82-5.22-.82-1.41-3-1.41-3,7.6-4.39,5.22.82Zm13.77,8,1.41,3,1.41,3-7.6,4.39-5.22-.81-5.21-.82-1.42-3-1.41-3,7.61-4.39,5.21.81Zm13.76,7.95,1.41,3,1.42,3-7.61,4.39-5.21-.82-5.22-.81-1.41-3L657,203l7.6-4.4,5.22.82Zm13.77,7.94,1.41,3,1.41,3-7.6,4.4-5.22-.82-5.22-.82-1.41-3-1.41-3,7.61-4.39,5.21.82Zm13.76,7.95,1.41,3,1.41,3-7.6,4.39-5.22-.81-5.21-.82-1.41-3-1.42-3,7.61-4.39,5.21.81Zm13.76,8,1.42,3,1.41,3-7.61,4.39-5.21-.82-5.22-.81-1.41-3-1.41-3,7.6-4.4,5.22.82Zm-2.13,16.83-7.61,4.39-5.22-.81-5.21-.82-1.41-3-1.42-3,7.61-4.39,5.21.81,5.22.82,1.41,3Zm-23.7,13.68-7.6,4.39-5.22-.82-5.21-.81-1.41-3-1.42-3,7.61-4.4,5.21.82,5.22.82,1.41,3Zm-23.69,13.68-7.6,4.39-5.22-.82-5.21-.81-1.42-3L646,265l7.61-4.39,5.21.82,5.22.81,1.41,3ZM643.15,282l-7.6,4.4-5.22-.82-5.21-.82-1.42-3-1.41-3,7.61-4.39,5.21.82,5.22.81,1.41,3Zm-23.69,13.68-7.6,4.39-5.22-.81-5.21-.82-1.42-3-1.41-3,7.61-4.39,5.21.81,5.22.82,1.41,3Zm-23.69,13.68-7.61,4.39-5.21-.81-5.22-.82-1.41-3-1.41-3,7.6-4.39,5.22.81,5.21.82,1.42,3ZM572.08,323l-7.61,4.39-5.21-.82-5.22-.81-1.41-3-1.41-3,7.6-4.39,5.22.81,5.21.82,1.42,3Zm-23.69,13.68-7.61,4.39-5.21-.82-5.22-.81-1.41-3-1.41-3,7.6-4.39,5.22.82,5.21.81,1.41,3ZM524.7,350.34l-7.61,4.4-5.21-.82-5.22-.82-1.41-3-1.41-3,7.6-4.39,5.22.82,5.21.81,1.41,3ZM501,364l-7.6,4.39-5.22-.81-5.21-.82-1.41-3-1.42-3,7.61-4.39,5.22.82,5.21.81,1.41,3ZM477.31,377.7l-7.6,4.39-5.22-.81-5.21-.82-1.41-3-1.42-3,7.61-4.39,5.21.81,5.22.82,1.41,3Zm-23.69,13.68-7.6,4.39L440.8,395l-5.21-.81-1.42-3-1.41-3,7.61-4.39,5.21.81,5.22.82,1.41,3Zm-23.69,13.68-7.6,4.39-5.22-.82-5.21-.81-1.42-3-1.41-3,7.61-4.39,5.21.82,5.22.81,1.41,3Zm-31.8-5.19-1.41-3-1.41-3,7.6-4.39,5.22.81,5.21.82,1.42,3,1.41,3-7.61,4.39-5.21-.81Zm-13.76-7.95-1.41-3-1.42-3,7.61-4.39,5.21.82,5.22.81,1.41,3,1.41,3-7.6,4.39-5.22-.81ZM370.6,384l-1.41-3-1.41-3,7.6-4.39,5.22.82,5.22.82,1.41,3,1.41,3-7.6,4.39-5.22-.82Zm-13.76-8-1.41-3L354,370l7.6-4.39,5.22.81,5.21.82,1.41,3,1.42,3-7.61,4.39-5.21-.81Zm-13.76-7.95-1.42-3-1.41-3,7.61-4.39,5.21.82,5.22.81,1.41,3,1.41,3-7.6,4.39-5.22-.81Zm-13.77-7.94-1.41-3-1.41-3,7.6-4.39,5.22.82,5.21.82,1.42,3,1.41,3-7.61,4.39-5.21-.82Zm-13.76-7.95-1.41-3-1.42-3,7.61-4.39,5.21.81,5.22.82,1.41,3,1.41,3-7.6,4.39-5.22-.81Zm-13.77-7.95-1.41-3-1.41-3,7.6-4.39,5.22.82,5.22.81,1.41,3,1.41,3-7.6,4.39-5.22-.81ZM288,336.3l-1.41-3-1.41-3,7.6-4.39,5.22.82,5.21.82,1.41,3,1.42,3-7.61,4.39-5.21-.82Zm-13.76-7.95-1.42-3-1.41-3,7.61-4.39,5.21.81,5.22.82,1.41,3,1.41,3-7.6,4.39-5.22-.81Zm-13.77-8-1.41-3-1.41-3,7.6-4.39,5.22.82,5.21.81,1.42,3,1.41,3L270.92,322l-5.21-.81Zm-13.76-7.94-1.41-3-1.42-3,7.61-4.39,5.21.82,5.22.82,1.41,3,1.41,3-7.6,4.39-5.22-.82ZM233,304.51l-1.41-3-1.41-3,7.61-4.39,5.21.81,5.22.82,1.41,3,1.41,3-7.6,4.39-5.22-.81Zm-13.76-7.95-1.41-3-1.41-3,7.6-4.39,5.22.82,5.21.81,1.41,3,1.42,3-7.61,4.39-5.21-.81Zm-13.76-7.94-1.42-3-1.41-3,7.61-4.39,5.21.82,5.22.82,1.41,3,1.41,3-7.6,4.39-5.22-.82Zm-13.77-7.95-1.41-3-1.41-3,7.6-4.39,5.22.81,5.21.82,1.42,3,1.41,3-7.61,4.39-5.21-.81Zm-13.76-7.95-1.41-3-1.42-3,7.61-4.39,5.21.82,5.22.81,1.41,3,1.41,3-7.6,4.39-5.22-.81Zm-13.77-7.94-1.41-3-1.41-3,7.61-4.4,5.21.82,5.22.82,1.41,3,1.41,3-7.6,4.39-5.22-.82Zm-13.76-7.95-1.41-3-1.41-3,7.6-4.39,5.22.81,5.21.82,1.41,3,1.42,3-7.61,4.39-5.21-.81Zm-13.76-7.95-1.42-3-1.41-3,7.61-4.39,5.21.82,5.22.81,1.41,3,1.41,3-7.6,4.4-5.22-.82Zm-13.77-7.94-1.41-3-1.41-3,7.6-4.4,5.22.82,5.21.82,1.42,3,1.41,3-7.61,4.39-5.21-.82ZM109.09,233l-1.41-3-1.42-3,7.61-4.39,5.21.81,5.22.82,1.41,3,1.42,3-7.61,4.39-5.22-.81Zm-13.76-8-1.42-3-1.41-3,7.61-4.39,5.21.82,5.22.81,1.41,3,1.41,3-7.6,4.4-5.22-.82ZM81.56,217.1l-1.41-3-1.41-3,7.6-4.4,5.22.82,5.21.82,1.41,3,1.42,3L92,218.73l-5.21-.82ZM67.8,209.15l-1.42-3-1.41-3,7.61-4.39,5.21.81,5.22.82,1.41,3,1.41,3-7.6,4.39L73,210ZM54,201.2l-1.41-3-1.41-3,7.6-4.39,5.22.82,5.21.81,1.42,3,1.41,3-7.61,4.4L59.25,202Zm-13.76-7.94-1.41-3-1.42-3,7.61-4.4,5.22.82,5.21.82,1.41,3,1.42,3-7.61,4.39-5.21-.82Zm-13.76-7.95-1.42-3-1.41-3,7.61-4.39,5.21.81,5.22.82,1.41,3,1.41,3-7.6,4.39-5.22-.81Zm-13.77-7.95-1.41-3-1.41-3,7.6-4.39,5.22.82,5.21.81,1.41,3,1.42,3L23.17,179,18,178.18ZM-1,169.42l-1.41-3-1.42-3L3.76,159l5.21.82,5.22.82,1.41,3,1.41,3-7.6,4.39-5.22-.82Zm-13.77-7.95-1.41-3-1.41-3,7.6-4.39,5.22.81,5.21.82,1.42,3,1.41,3-7.61,4.39-5.21-.81Zm20.87-19.7,7.6-4.39,5.22.82,5.22.81,1.41,3,1.41,3-7.6,4.39-5.22-.81-5.22-.82-1.41-3Zm23.69-13.68,7.61-4.39,5.21.82,5.22.81,1.41,3,1.41,3L43,135.75l-5.22-.82-5.21-.82-1.42-3Zm23.69-13.68L61.07,110l5.21.82,5.22.82,1.41,3,1.41,3-7.6,4.39-5.22-.82-5.21-.81-1.42-3Zm23.69-13.67,7.61-4.39,5.21.81,5.22.82,1.41,3L98,104l-7.6,4.39-5.22-.82L80,106.76l-1.41-3Zm23.69-13.68,7.61-4.39,5.21.81,5.22.82,1.41,3,1.41,3-7.6,4.39-5.22-.81-5.21-.82-1.41-3Zm23.7-13.68,7.6-4.39,5.22.82,5.21.81,1.41,3,1.42,3L137.79,81l-5.21-.81-5.22-.82-1.41-3ZM148.23,59.7l7.6-4.39,5.22.82,5.21.81,1.41,3,1.42,3-7.61,4.39-5.21-.82-5.22-.82-1.41-3ZM171.92,46l7.6-4.39,5.22.82,5.21.81,1.42,3,1.41,3-7.61,4.39L180,52.86l-5.22-.81-1.41-3Zm23.69-13.67,7.6-4.39,5.22.81,5.21.82,1.42,3,1.41,3L208.86,40l-5.21-.82-5.22-.81-1.41-3ZM219.3,18.67l7.6-4.39,5.22.81,5.22.82,1.41,3,1.41,3-7.6,4.39-5.22-.81-5.22-.82-1.41-3ZM243,5,250.6.6l5.21.82,5.22.81,1.41,3,1.41,3-7.6,4.39L251,11.83,245.82,11,244.4,8ZM266.68-8.69l7.61-4.39,5.21.82,5.22.81,1.41,3,1.41,3L279.94-1l-5.22-.82-5.21-.82-1.42-3Zm31.8,5.19,1.41,3,1.42,3L293.7,6.91l-5.21-.81-5.22-.82-1.41-3-1.41-3,7.6-4.39,5.22.81Zm13.77,8,1.41,3,1.41,3-7.61,4.39L302.25,14,297,13.23l-1.41-3-1.41-3,7.6-4.4,5.22.82ZM326,12.39l1.41,3,1.41,3-7.6,4.4L316,22l-5.21-.82-1.41-3-1.42-3,7.61-4.39,5.21.82Zm13.76,8,1.42,3,1.41,3L335,30.75l-5.21-.81-5.22-.82-1.41-3-1.41-3,7.6-4.39,5.22.81Zm13.77,8,1.41,3,1.41,3-7.6,4.39-5.22-.82-5.21-.81-1.42-3-1.41-3,7.61-4.4,5.21.82Zm13.76,7.94,1.41,3,1.42,3-7.61,4.4-5.21-.82L352.09,45l-1.41-3-1.42-3,7.61-4.39,5.22.82Zm13.77,8,1.41,3,1.41,3-7.61,4.39-5.21-.81L365.85,53l-1.41-3-1.41-3,7.6-4.39,5.22.81Zm13.76,8,1.41,3,1.41,3-7.6,4.39-5.22-.82-5.21-.81-1.41-3-1.42-3,7.61-4.4,5.21.82Zm13.76,7.94,1.42,3,1.41,3-7.61,4.4-5.21-.82-5.22-.82-1.41-3-1.41-3,7.6-4.39,5.22.82ZM422.36,68l1.41,3,1.41,3-7.6,4.39-5.22-.81-5.21-.82-1.42-3-1.41-3,7.61-4.39,5.21.81Zm13.76,8,1.41,3L439,82l-7.61,4.39-5.21-.82-5.22-.81-1.41-3-1.42-3,7.61-4.4,5.22.82Zm13.76,7.94,1.42,3,1.41,3-7.61,4.4-5.21-.82-5.22-.82-1.41-3-1.41-3,7.6-4.39,5.22.82Zm13.77,8,1.41,3,1.41,3-7.6,4.39-5.22-.81-5.21-.82-1.41-3-1.42-3,7.61-4.39,5.21.81Zm13.76,8,1.42,3,1.41,3-7.61,4.39-5.21-.82-5.22-.81-1.41-3-1.41-3,7.6-4.4,5.22.82Zm13.77,7.94,1.41,3,1.41,3-7.6,4.39-5.22-.81-5.21-.82-1.42-3-1.41-3,7.61-4.39,5.21.82Zm13.76,8,1.41,3,1.42,3-7.61,4.39L495,125.3l-5.22-.82-1.41-3-1.42-3,7.61-4.39,5.22.81Zm13.76,8,1.42,3,1.41,3-7.61,4.39-5.21-.82-5.22-.81-1.41-3-1.41-3,7.6-4.4,5.22.82Zm13.77,7.94,1.41,3,1.41,3-7.6,4.39-5.22-.81-5.21-.82-1.41-3-1.42-3L522,130l5.21.82Zm13.76,7.95,1.42,3,1.41,3L541.45,150l-5.21-.81-5.22-.82-1.41-3-1.41-3,7.6-4.39,5.22.81Zm13.77,8,1.41,3,1.41,3-7.6,4.39-5.22-.82-5.21-.81-1.42-3-1.41-3,7.61-4.39,5.21.82Zm13.76,7.94,1.41,3,1.42,3L569,165.84l-5.22-.81-5.21-.82-1.41-3-1.42-3,7.61-4.39,5.22.82Zm13.76,7.95,1.42,3,1.41,3-7.61,4.39-5.21-.81-5.22-.82-1.41-3-1.41-3,7.6-4.39,5.22.81Zm13.77,8,1.41,3,1.41,3-7.6,4.39-5.22-.82-5.21-.81-1.41-3-1.42-3,7.61-4.39,5.21.82Zm13.76,7.94,1.41,3,1.42,3-7.61,4.39-5.21-.81-5.22-.82-1.41-3L597,182l7.6-4.39,5.22.82Zm13.77,7.95,1.41,3,1.41,3-7.6,4.39-5.22-.81-5.21-.82-1.42-3-1.41-3,7.61-4.39,5.21.81Zm13.76,7.94,1.41,3,1.42,3-7.61,4.39-5.22-.82-5.21-.81-1.41-3-1.42-3,7.61-4.39,5.21.82Zm13.76,8,1.42,3,1.41,3-7.61,4.39-5.21-.81-5.22-.82-1.41-3-1.41-3,7.6-4.39,5.22.82Zm13.77,7.95,1.41,3,1.41,3-7.6,4.39-5.22-.81-5.21-.82-1.42-3-1.41-3,7.61-4.39,5.21.81ZM683.87,219l1.41,3,1.42,3-7.61,4.39-5.21-.82-5.22-.81-1.41-3-1.41-3,7.6-4.39,5.22.82ZM697.64,227l1.41,3,1.41,3-7.6,4.39-5.22-.81-5.21-.82-1.42-3-1.41-3,7.61-4.39,5.21.82Zm-2.14,16.84-7.61,4.39-5.21-.82-5.22-.81-1.41-3-1.41-3,7.6-4.39,5.22.82,5.21.81,1.42,3Zm-23.69,13.67-7.61,4.39L659,261l-5.22-.82-1.41-3-1.41-3,7.6-4.39,5.22.82,5.21.81,1.41,3Zm-23.69,13.68-7.61,4.39-5.22-.81-5.21-.82-1.41-3-1.42-3,7.61-4.39,5.22.81,5.21.82,1.41,3Zm-23.7,13.68-7.6,4.39-5.22-.81-5.21-.82-1.41-3-1.42-3,7.61-4.39,5.21.81,5.22.82,1.41,3ZM600.73,298.5l-7.6,4.39-5.22-.82-5.21-.81-1.42-3-1.41-3,7.61-4.4,5.21.82,5.22.82,1.41,3ZM577,312.18l-7.6,4.39-5.22-.82-5.21-.81-1.42-3-1.41-3,7.61-4.39,5.21.82,5.22.81,1.41,3Zm-23.69,13.67-7.6,4.4-5.22-.82-5.21-.82-1.42-3-1.41-3,7.61-4.39,5.21.82,5.22.81,1.41,3Zm-23.69,13.68-7.61,4.39-5.21-.81-5.22-.82-1.41-3-1.41-3,7.6-4.39,5.22.81,5.21.82,1.42,3ZM506,353.21l-7.61,4.39-5.21-.81-5.22-.82-1.41-3-1.41-3,7.6-4.39,5.22.81,5.21.82,1.42,3Zm-23.69,13.68-7.61,4.39-5.21-.82-5.22-.81-1.41-3-1.41-3,7.6-4.4,5.22.82,5.21.82,1.42,3Zm-23.69,13.68L451,385l-5.21-.82-5.22-.81-1.41-3-1.41-3,7.6-4.39,5.22.82,5.21.81,1.41,3ZM434.9,394.24l-7.61,4.4-5.21-.82-5.22-.82-1.41-3L414,391l7.61-4.39,5.22.82,5.21.81,1.41,3Zm-31.8-5.18-1.42-3-1.41-3,7.61-4.4,5.21.82,5.22.82,1.41,3,1.41,3-7.6,4.39-5.22-.82Zm-13.77-7.95-1.41-3-1.41-3,7.6-4.39,5.22.81,5.21.82,1.42,3,1.41,3-7.61,4.39-5.21-.81Zm-13.76-7.95-1.41-3-1.42-3,7.61-4.39,5.21.82,5.22.81,1.41,3,1.41,3-7.6,4.4-5.22-.82Zm-13.77-7.94-1.41-3-1.41-3,7.6-4.4,5.22.82,5.21.82,1.42,3,1.41,3-7.61,4.39L367,366Zm-13.76-8-1.41-3-1.42-3,7.61-4.39,5.22.81,5.21.82,1.41,3,1.42,3-7.61,4.39-5.21-.81Zm-13.76-7.95-1.42-3-1.41-3,7.61-4.39,5.21.82,5.22.81,1.41,3,1.41,3-7.6,4.4-5.22-.82Zm-13.77-7.94-1.41-3-1.41-3,7.6-4.4,5.22.82,5.21.82,1.42,3,1.41,3L330.94,343l-5.21-.82Zm-13.76-7.95-1.41-3-1.42-3,7.61-4.39,5.21.81,5.22.82,1.41,3,1.41,3-7.6,4.39-5.22-.81ZM293,325.48l-1.41-3-1.41-3,7.6-4.39,5.22.82,5.21.81,1.42,3,1.41,3-7.61,4.4-5.21-.82Zm-13.76-7.94-1.41-3-1.41-3,7.6-4.4,5.22.82,5.21.82,1.41,3,1.42,3-7.61,4.39-5.21-.82Zm-13.76-8-1.42-3-1.41-3,7.61-4.39,5.21.81,5.22.82,1.41,3,1.41,3-7.6,4.39-5.22-.81Zm-13.77-7.95-1.41-3-1.41-3,7.6-4.39,5.22.82,5.21.81,1.42,3,1.41,3-7.61,4.4-5.21-.82Zm-13.76-7.94-1.41-3-1.42-3,7.61-4.39,5.21.81,5.22.82,1.41,3,1.41,3-7.6,4.39-5.22-.82Zm-13.77-7.95-1.41-3-1.41-3,7.6-4.39,5.22.81,5.21.82,1.42,3,1.41,3-7.6,4.39-5.22-.81ZM210.4,277.8l-1.41-3-1.41-3,7.6-4.39,5.22.82,5.21.81,1.41,3,1.42,3-7.61,4.4-5.21-.82Zm-13.76-7.94-1.42-3-1.41-3,7.61-4.39,5.21.81,5.22.82,1.41,3,1.41,3-7.6,4.39-5.22-.82Zm-13.77-7.95-1.41-3-1.41-3,7.6-4.39,5.22.81,5.21.82,1.42,3,1.41,3-7.61,4.39-5.21-.81Zm-13.76-8-1.41-3-1.42-3,7.61-4.39,5.21.82,5.22.81,1.41,3,1.41,3-7.6,4.4-5.22-.82ZM155.34,246l-1.41-3-1.41-3,7.6-4.39,5.22.81,5.22.82,1.41,3,1.41,3-7.6,4.39-5.22-.82Zm-13.76-8-1.41-3-1.41-3,7.6-4.39,5.22.81,5.21.82,1.41,3,1.42,3L152,239.7l-5.21-.81Zm-13.76-7.94-1.42-3-1.41-3,7.61-4.39,5.21.82,5.22.81,1.41,3,1.41,3-7.6,4.39-5.22-.82Zm-13.77-7.95-1.41-3-1.41-3,7.6-4.39,5.22.81,5.21.82,1.42,3,1.41,3-7.61,4.39-5.21-.82Zm-13.76-8-1.41-3-1.42-3,7.61-4.39,5.21.81,5.22.82,1.41,3,1.41,3-7.6,4.39-5.22-.81Zm-13.76-7.94-1.42-3-1.41-3,7.61-4.39,5.21.82,5.22.81,1.41,3,1.41,3L97,207.92l-5.22-.82Zm-13.77-7.95-1.41-3-1.41-3,7.6-4.39,5.22.81,5.21.82,1.41,3,1.42,3L83.19,200,78,199.15Zm-13.76-8-1.42-3-1.41-3L63.78,180l5.21.81,5.22.82,1.41,3,1.41,3L69.43,192l-5.22-.81Zm-13.77-7.94-1.41-3-1.41-3L50,172l5.22.82,5.21.81,1.42,3,1.41,3-7.61,4.39-5.21-.82ZM31.47,174.5l-1.41-3-1.42-3,7.61-4.39,5.21.81,5.22.82,1.41,3,1.42,3-7.61,4.39-5.22-.82Zm-13.76-7.95-1.42-3-1.41-3,7.61-4.39,5.21.81,5.22.82,1.41,3,1.41,3-7.6,4.39-5.22-.81ZM3.94,158.61l-1.41-3-1.41-3,7.6-4.39,5.22.82,5.21.81,1.41,3,1.42,3-7.61,4.39-5.21-.82Zm20.87-19.7,7.6-4.4,5.22.82,5.21.82,1.42,3,1.41,3-7.61,4.39-5.21-.82-5.22-.81-1.41-3ZM48.5,125.23l7.6-4.39,5.22.81,5.21.82,1.42,3,1.41,3-7.61,4.39-5.21-.82-5.22-.81-1.41-3Zm23.69-13.68,7.6-4.39L85,108l5.22.82,1.41,3,1.41,3-7.6,4.39-5.22-.81L75,117.57l-1.41-3ZM95.88,97.87l7.61-4.39,5.21.82,5.22.81,1.41,3,1.41,3-7.6,4.39-5.22-.81-5.21-.82-1.42-3Zm23.69-13.68,7.61-4.39,5.21.82,5.22.81,1.41,3,1.41,3-7.6,4.39L127.61,91l-5.21-.81-1.42-3Zm23.69-13.68,7.61-4.39,5.21.82,5.22.82,1.41,3,1.41,3-7.6,4.39-5.22-.82-5.21-.81-1.42-3ZM167,56.84l7.61-4.39,5.21.81,5.22.82,1.41,3,1.41,3-7.6,4.39L175,63.67l-5.21-.81-1.41-3Zm23.69-13.68,7.61-4.39,5.22.81,5.21.82,1.41,3,1.42,3-7.61,4.39L198.69,50l-5.22-.82-1.41-3Zm23.7-13.68,7.6-4.39,5.22.82,5.21.81,1.41,3,1.42,3-7.61,4.39-5.21-.81-5.22-.82-1.41-3ZM238,15.8l7.6-4.39,5.22.82,5.21.81,1.42,3,1.41,3-7.61,4.4-5.21-.82-5.22-.82-1.41-3ZM261.72,2.12l7.6-4.39,5.22.82,5.21.81,1.42,3,1.41,3L275,9.78,269.76,9l-5.22-.81-1.41-3Zm31.8,5.19,1.41,3,1.41,3-7.6,4.39-5.22-.81-5.21-.82-1.42-3-1.41-3,7.61-4.39,5.21.82Zm13.76,8,1.41,3,1.42,3-7.61,4.39-5.21-.81L292.07,24l-1.41-3-1.41-3,7.6-4.39,5.22.81Zm13.77,7.94,1.41,3,1.41,3-7.6,4.39-5.22-.82L305.83,32l-1.41-3L303,26l7.61-4.39,5.21.82Zm13.76,8,1.41,3,1.41,3L330,41.56l-5.22-.81-5.21-.82-1.41-3-1.42-3,7.61-4.39,5.21.82Zm13.76,8,1.42,3,1.41,3-7.61,4.39-5.21-.81-5.22-.82-1.41-3-1.41-3,7.6-4.39,5.22.81ZM362.34,47l1.41,3,1.41,3-7.6,4.39-5.22-.82-5.21-.81-1.42-3-1.41-3,7.61-4.39,5.21.82Zm13.76,8,1.41,3,1.42,3-7.61,4.39-5.21-.81-5.22-.82-1.41-3-1.41-3,7.6-4.39,5.22.82Zm13.77,7.95,1.41,3,1.41,3-7.6,4.39-5.22-.81-5.22-.82-1.41-3-1.41-3,7.6-4.39,5.22.81Zm13.76,7.94,1.41,3,1.42,3-7.61,4.39-5.22-.82-5.21-.81-1.41-3-1.42-3,7.61-4.39,5.21.82Zm13.76,8,1.42,3,1.41,3-7.61,4.39-5.21-.81-5.22-.82-1.41-3-1.41-3L407,77.2l5.22.82Zm13.77,8,1.41,3,1.41,3-7.6,4.39-5.22-.81L416,95.56l-1.42-3-1.41-3,7.61-4.39,5.21.81Zm13.76,7.94,1.41,3,1.42,3-7.61,4.39-5.21-.82-5.22-.81-1.41-3-1.41-3,7.6-4.39,5.22.82Zm13.77,8,1.41,3,1.41,3-7.61,4.39-5.21-.81-5.22-.82-1.41-3-1.41-3,7.6-4.39,5.22.82Zm13.76,8,1.41,3,1.41,3-7.6,4.39-5.22-.81-5.21-.82-1.41-3-1.42-3L462,109l5.21.81Zm13.76,7.94,1.42,3,1.41,3L481.43,129l-5.21-.82-5.22-.81-1.41-3-1.41-3,7.6-4.39,5.22.82Zm13.77,8,1.41,3,1.41,3-7.6,4.39-5.22-.81-5.21-.82-1.42-3-1.41-3,7.61-4.39,5.21.82Zm13.76,8,1.41,3,1.42,3L509,144.87l-5.21-.81-5.22-.82-1.41-3-1.42-3,7.61-4.39,5.22.81Zm13.77,7.94,1.41,3,1.41,3-7.61,4.39-5.21-.82-5.22-.81-1.41-3-1.41-3,7.6-4.39,5.22.82Zm13.76,7.95,1.41,3,1.41,3-7.6,4.39-5.22-.81-5.21-.82-1.41-3-1.42-3,7.61-4.39,5.21.82Zm13.76,8,1.42,3,1.41,3-7.61,4.39L545,167.9l-5.22-.82-1.41-3-1.41-3,7.6-4.39,5.22.81Zm13.77,7.94,1.41,3,1.41,3-7.6,4.39-5.22-.82-5.21-.81-1.42-3-1.41-3,7.61-4.39,5.21.82Zm13.76,7.95,1.41,3,1.42,3-7.61,4.39-5.21-.81-5.22-.82-1.41-3-1.42-3,7.61-4.39,5.22.82Zm13.76,7.95,1.42,3,1.41,3-7.61,4.39-5.21-.82-5.22-.81-1.41-3-1.41-3,7.6-4.39,5.22.81Zm13.77,7.94,1.41,3,1.41,3-7.6,4.39-5.22-.82-5.21-.81-1.41-3-1.42-3,7.61-4.39,5.21.82ZM623.85,198l1.42,3,1.41,3-7.61,4.39-5.21-.81-5.22-.82-1.41-3-1.41-3,7.6-4.39,5.22.82ZM637.62,206l1.41,3,1.41,3-7.6,4.39-5.22-.82-5.21-.81-1.42-3-1.41-3,7.61-4.39,5.21.81Zm13.76,7.94,1.41,3,1.42,3-7.61,4.39-5.21-.82-5.22-.81-1.41-3-1.42-3,7.61-4.39,5.22.82Zm13.76,8,1.42,3,1.41,3-7.61,4.39-5.21-.81-5.22-.82-1.41-3-1.41-3,7.6-4.39,5.22.81Zm13.77,7.95,1.41,3,1.41,3-7.6,4.39-5.22-.82-5.21-.81-1.42-3-1.41-3,7.61-4.39,5.21.81Zm-2.14,16.83L669.16,251l-5.21-.81-5.22-.82-1.41-3-1.41-3,7.6-4.39,5.22.81,5.22.82,1.41,3Zm-23.69,13.68-7.61,4.39-5.21-.82-5.22-.81-1.41-3-1.41-3,7.6-4.39,5.22.81,5.21.82,1.42,3ZM629.39,274l-7.61,4.39-5.21-.82-5.22-.81-1.41-3-1.41-3,7.6-4.4,5.22.82,5.21.82,1.42,3ZM605.7,287.69l-7.61,4.39-5.21-.82-5.22-.81-1.41-3-1.41-3,7.6-4.39,5.22.82,5.21.81,1.41,3ZM582,301.36l-7.61,4.39-5.21-.81-5.22-.82-1.41-3-1.42-3,7.61-4.39,5.22.82,5.21.81,1.41,3ZM558.31,315l-7.6,4.39-5.22-.81-5.21-.82-1.41-3-1.42-3,7.61-4.39,5.21.81,5.22.82,1.41,3Zm-23.69,13.68-7.6,4.39-5.22-.81-5.21-.82-1.41-3-1.42-3,7.61-4.39,5.21.81,5.22.82,1.41,3ZM510.93,342.4l-7.6,4.39-5.22-.82-5.21-.81-1.42-3-1.41-3,7.61-4.4,5.21.82,5.22.82,1.41,3Zm-23.69,13.68-7.6,4.39-5.22-.82-5.21-.81-1.42-3-1.41-3,7.61-4.39,5.21.82,5.22.81,1.41,3Zm-23.69,13.67-7.6,4.39-5.22-.81-5.22-.82-1.41-3-1.41-3,7.6-4.39,5.22.82,5.21.81,1.42,3Zm-23.69,13.68-7.61,4.39L427,387l-5.22-.82-1.41-3-1.41-3,7.6-4.39,5.22.81,5.21.82,1.42,3Zm-31.8-5.19-1.41-3-1.42-3,7.61-4.39,5.21.82,5.22.81,1.41,3,1.41,3-7.6,4.39-5.22-.82ZM394.3,370.3l-1.42-3-1.41-3,7.61-4.39,5.21.81,5.22.82,1.41,3,1.41,3-7.6,4.39-5.22-.82Zm-13.77-7.95-1.41-3-1.41-3,7.6-4.39,5.22.81,5.21.82,1.41,3,1.42,3L391,364l-5.21-.81Zm-13.76-7.94-1.42-3-1.41-3,7.61-4.39,5.21.82,5.22.81,1.41,3,1.41,3L377.2,356l-5.22-.82Zm-13.77-8-1.41-3-1.41-3,7.6-4.39,5.22.81,5.21.82,1.42,3,1.41,3-7.61,4.39-5.21-.82Zm-13.76-7.95-1.41-3-1.42-3L344,328.1l5.21.81,5.22.82,1.41,3,1.42,3-7.61,4.39-5.22-.81Zm-13.76-7.94-1.42-3-1.41-3,7.61-4.39,5.21.82,5.22.81,1.41,3,1.41,3-7.6,4.39-5.22-.82Zm-13.77-7.95-1.41-3-1.41-3,7.6-4.39,5.22.81,5.21.82,1.42,3,1.41,3-7.61,4.39-5.21-.82ZM298,314.67l-1.41-3-1.42-3,7.61-4.39,5.21.81,5.22.82,1.41,3,1.41,3-7.6,4.39-5.22-.81Zm-13.77-7.94-1.41-3-1.41-3,7.6-4.39,5.22.82,5.21.81,1.42,3,1.41,3-7.61,4.39-5.21-.82Zm-13.76-8-1.41-3-1.42-3,7.61-4.39,5.22.81,5.21.82,1.41,3,1.42,3-7.61,4.39-5.21-.82Zm-13.76-7.95-1.42-3-1.41-3,7.61-4.39,5.21.81,5.22.82,1.41,3,1.41,3-7.6,4.39-5.22-.81Zm-13.77-7.94-1.41-3-1.41-3,7.6-4.39,5.22.82,5.21.81,1.42,3,1.41,3-7.61,4.39-5.21-.82Zm-13.76-7.95-1.41-3-1.42-3,7.61-4.39,5.21.81,5.22.82,1.41,3,1.41,3-7.6,4.39-5.22-.82ZM215.36,267,214,264l-1.41-3,7.6-4.39,5.22.82,5.21.81,1.42,3,1.41,3-7.61,4.39-5.21-.81Zm-13.76-7.94-1.41-3-1.42-3,7.61-4.39,5.22.82,5.21.81,1.41,3,1.42,3L212,260.68l-5.21-.82Zm-13.76-8-1.42-3-1.41-3,7.61-4.39,5.21.81,5.22.82,1.41,3,1.41,3-7.6,4.39-5.22-.82Zm-13.77-7.95-1.41-3-1.41-3,7.6-4.39,5.22.82,5.21.81,1.42,3,1.41,3-7.61,4.39-5.21-.81Zm-13.76-7.94-1.41-3-1.42-3,7.61-4.39,5.21.82,5.22.81,1.41,3,1.41,3-7.6,4.39-5.22-.82Zm-13.77-8-1.41-3-1.41-3,7.6-4.39,5.22.81,5.22.82,1.41,3,1.41,3L157,228.89l-5.21-.82Zm-13.76-7.95-1.41-3-1.41-3,7.6-4.39,5.22.82,5.21.81,1.41,3,1.42,3-7.61,4.39-5.21-.81ZM119,211.37l-1.42-3-1.41-3L123.8,201l5.21.82,5.22.81,1.41,3,1.41,3-7.6,4.39-5.22-.82Zm-13.77-8-1.41-3-1.41-3L110,193l5.22.81,5.21.82,1.42,3,1.41,3-7.61,4.39-5.21-.82Zm-13.76-7.95-1.41-3-1.42-3,7.61-4.39,5.21.82,5.22.81,1.41,3,1.41,3-7.6,4.39-5.22-.81Zm-13.77-7.94-1.41-3-1.41-3,7.6-4.39,5.22.82,5.21.81,1.42,3,1.41,3-7.6,4.39-5.22-.82ZM64,179.58l-1.41-3-1.41-3,7.6-4.39L74,170l5.21.82,1.41,3,1.42,3-7.61,4.39-5.21-.81Zm-13.76-8-1.42-3-1.41-3L55,161.22l5.21.82,5.22.81,1.41,3,1.41,3-7.6,4.39-5.22-.81Zm-13.77-7.94-1.41-3-1.41-3,7.6-4.39,5.22.82,5.21.81,1.42,3,1.41,3-7.61,4.39-5.21-.82Zm-13.76-7.95-1.41-3-1.42-3,7.61-4.39,5.21.81,5.22.82,1.41,3,1.41,3-7.6,4.39-5.22-.81ZM43.53,136l7.61-4.39,5.22.81,5.21.82,1.41,3,1.42,3-7.61,4.39-5.21-.81-5.22-.82-1.41-3Zm23.7-13.68,7.6-4.39,5.22.82,5.21.81,1.41,3,1.42,3L80.48,130l-5.21-.81-5.22-.82-1.41-3Zm23.69-13.68,7.6-4.39,5.22.82,5.21.81,1.42,3,1.41,3-7.61,4.39L99,115.52l-5.22-.81-1.41-3ZM114.61,95l7.6-4.4,5.22.82,5.21.82,1.42,3,1.41,3-7.61,4.39-5.21-.82-5.22-.81L116,98ZM138.3,81.33l7.6-4.39,5.22.81,5.21.82,1.42,3,1.41,3L151.56,89l-5.22-.81-5.22-.82-1.41-3ZM162,67.65l7.6-4.39,5.22.81,5.22.82,1.41,3,1.41,3-7.6,4.39L170,74.49l-5.21-.82-1.42-3ZM185.68,54l7.61-4.39,5.21.82,5.22.81,1.41,3,1.41,3-7.6,4.39-5.22-.81L188.51,60l-1.42-3Zm23.69-13.68L217,35.9l5.21.82,5.22.81,1.41,3,1.41,3L222.63,48l-5.22-.82-5.21-.81-1.42-3Zm23.69-13.68,7.61-4.39,5.21.82,5.22.82,1.41,3,1.41,3-7.6,4.39-5.22-.82-5.21-.81-1.41-3Zm23.69-13.67,7.61-4.39,5.21.81,5.22.82,1.41,3,1.42,3L270,20.59l-5.22-.82L259.58,19l-1.41-3Zm31.8,5.18,1.42,3,1.41,3-7.61,4.39-5.21-.82-5.22-.81-1.41-3-1.41-3,7.6-4.39,5.22.82Zm13.77,8,1.41,3,1.41,3-7.6,4.39-5.22-.81-5.21-.82-1.42-3-1.41-3,7.61-4.39,5.21.81Zm13.76,8,1.41,3,1.42,3-7.61,4.39-5.21-.82-5.22-.81-1.41-3-1.41-3,7.6-4.39,5.22.81ZM329.85,42l1.41,3,1.41,3-7.6,4.39-5.22-.82-5.21-.81-1.42-3-1.41-3,7.61-4.39,5.21.82Zm13.76,7.95,1.41,3,1.42,3-7.61,4.39-5.22-.81-5.21-.82-1.41-3-1.42-3,7.61-4.39,5.21.81Zm13.76,8,1.42,3,1.41,3-7.61,4.39-5.21-.82-5.22-.81-1.41-3-1.41-3,7.6-4.39,5.22.81Zm13.77,7.94,1.41,3,1.41,3-7.6,4.39-5.22-.82-5.21-.81-1.42-3-1.41-3,7.61-4.39,5.21.82Zm13.76,8,1.41,3,1.42,3-7.61,4.39-5.21-.81-5.22-.82-1.41-3-1.41-3,7.6-4.39,5.22.81Zm13.77,8,1.41,3,1.41,3-7.6,4.39-5.22-.82-5.21-.81-1.42-3-1.41-3,7.61-4.39,5.21.81Zm13.76,7.94,1.41,3,1.42,3-7.61,4.39-5.22-.82-5.21-.81-1.41-3-1.42-3L402,88l5.21.82Zm13.76,8,1.42,3,1.41,3L421.41,108l-5.21-.81-5.22-.82-1.41-3-1.41-3,7.6-4.39,5.22.81Zm13.77,8,1.41,3,1.41,3-7.6,4.39-5.22-.82-5.21-.81-1.42-3-1.41-3,7.61-4.39,5.21.81Zm13.76,7.94,1.41,3,1.42,3-7.61,4.39-5.21-.82-5.22-.81-1.41-3-1.41-3,7.6-4.39,5.22.82Zm13.77,8,1.41,3,1.41,3-7.6,4.39-5.22-.81-5.22-.82-1.41-3-1.41-3,7.61-4.39,5.21.81Zm13.76,7.95,1.41,3,1.41,3-7.6,4.39-5.22-.82-5.21-.81-1.41-3-1.42-3,7.61-4.39,5.21.81ZM495,137.32l1.42,3,1.41,3-7.61,4.39-5.21-.82-5.22-.81-1.41-3-1.41-3,7.6-4.39,5.22.82Zm13.77,8,1.41,3,1.41,3-7.6,4.39-5.22-.81-5.21-.82-1.42-3-1.41-3,7.61-4.39,5.21.81Zm13.76,7.95,1.41,3,1.42,3-7.61,4.39-5.21-.82-5.22-.81-1.41-3-1.41-3,7.6-4.39,5.22.81Zm13.77,7.94,1.41,3,1.41,3-7.6,4.39-5.22-.82-5.22-.81-1.41-3-1.41-3,7.6-4.39,5.22.82Zm13.76,8,1.41,3,1.41,3-7.6,4.39-5.22-.81-5.21-.82-1.41-3-1.42-3,7.61-4.39,5.21.81Zm13.76,7.95,1.42,3,1.41,3-7.61,4.39-5.21-.82-5.22-.81-1.41-3-1.41-3,7.6-4.39,5.22.81ZM577.6,185l1.41,3,1.41,3-7.6,4.4-5.22-.82-5.21-.81-1.42-3-1.41-3,7.61-4.39,5.21.82ZM591.36,193l1.41,3,1.42,3-7.61,4.39-5.21-.81-5.22-.82-1.41-3-1.42-3,7.61-4.39,5.22.81Zm13.77,8,1.41,3,1.41,3-7.6,4.39-5.22-.82-5.22-.81-1.41-3-1.41-3,7.6-4.39,5.22.81Zm13.76,7.94,1.41,3,1.41,3-7.6,4.4-5.22-.82-5.21-.82-1.41-3-1.42-3,7.61-4.39,5.21.82Zm13.76,7.95,1.42,3,1.41,3-7.61,4.39-5.21-.81-5.22-.82-1.41-3-1.41-3,7.6-4.39,5.22.81Zm13.77,8,1.41,3,1.41,3-7.6,4.39-5.22-.82-5.21-.81-1.42-3-1.41-3,7.61-4.39,5.21.81Zm13.76,7.94,1.41,3,1.42,3-7.61,4.4-5.21-.82-5.22-.82-1.41-3-1.42-3,7.61-4.39,5.22.82ZM658,249.52l-7.6,4.39-5.22-.82-5.21-.81-1.42-3-1.41-3,7.61-4.39,5.21.82,5.22.81,1.41,3ZM634.35,263.2l-7.6,4.39-5.22-.82-5.21-.81-1.42-3-1.41-3,7.61-4.39,5.21.82,5.22.81,1.41,3Zm-23.69,13.67-7.6,4.39-5.22-.81-5.22-.82-1.41-3-1.41-3,7.6-4.39,5.22.82,5.21.81,1.42,3ZM587,290.55l-7.61,4.39-5.21-.81-5.22-.82-1.41-3-1.41-3,7.6-4.39,5.22.81,5.21.82,1.42,3Zm-23.69,13.68-7.61,4.39-5.21-.82-5.22-.81-1.41-3-1.41-3,7.6-4.39,5.22.81,5.21.82,1.42,3Zm-23.69,13.68L532,322.3l-5.21-.82-5.22-.81-1.41-3-1.41-3,7.6-4.39,5.22.82,5.21.82,1.41,3ZM515.9,331.59,508.29,336l-5.21-.82-5.22-.81-1.41-3-1.42-3,7.61-4.39,5.22.82,5.21.81,1.41,3Zm-23.7,13.67-7.6,4.39-5.22-.81-5.21-.82-1.41-3-1.42-3,7.61-4.39,5.21.82,5.22.81,1.41,3Zm-23.69,13.68-7.6,4.39-5.22-.81-5.21-.82-1.41-3-1.42-3,7.61-4.39,5.21.81,5.22.82,1.41,3Zm-23.69,13.68-7.6,4.39L432,376.2l-5.21-.82-1.42-3-1.41-3,7.61-4.39,5.21.81,5.22.82,1.41,3ZM413,367.43l-1.41-3-1.41-3,7.6-4.39,5.22.82,5.21.81,1.42,3,1.41,3-7.61,4.39-5.21-.81Zm-13.76-7.94-1.41-3-1.42-3,7.61-4.39,5.21.82,5.22.81,1.41,3,1.41,3-7.6,4.39-5.22-.82Zm-13.77-7.95-1.41-3-1.41-3,7.6-4.39,5.22.81,5.22.82,1.41,3,1.41,3-7.6,4.39-5.22-.81Zm-13.76-8-1.41-3-1.41-3,7.6-4.39,5.22.82,5.21.81,1.41,3,1.42,3-7.61,4.39-5.21-.81ZM358,335.65l-1.42-3-1.41-3,7.61-4.39,5.21.82,5.22.81,1.41,3,1.41,3-7.6,4.39-5.22-.82ZM344.2,327.7l-1.41-3-1.41-3,7.6-4.39,5.22.81,5.21.82,1.42,3,1.41,3-7.61,4.39-5.21-.81Zm-13.76-7.95-1.41-3-1.42-3,7.61-4.39,5.21.82,5.22.81,1.41,3,1.42,3-7.61,4.39-5.22-.81Zm-13.76-7.94-1.42-3-1.41-3,7.61-4.39,5.21.82,5.22.81,1.41,3,1.41,3-7.6,4.39-5.22-.82Zm-13.77-7.95-1.41-3-1.41-3,7.6-4.39,5.22.81,5.21.82,1.41,3,1.42,3-7.61,4.39-5.21-.81Zm-13.76-7.95-1.42-3-1.41-3,7.61-4.39,5.21.82,5.22.81,1.41,3,1.41,3-7.6,4.39-5.22-.81ZM275.38,288,274,285l-1.41-3,7.6-4.39,5.22.82,5.21.81,1.42,3,1.41,3-7.61,4.39-5.21-.82Zm-13.76-8-1.41-3-1.42-3,7.61-4.39,5.22.81,5.21.82,1.41,3,1.41,3-7.6,4.39-5.22-.81Zm-13.76-7.95-1.42-3-1.41-3,7.61-4.39,5.21.82,5.22.81,1.41,3,1.41,3-7.6,4.39-5.22-.81Zm-13.77-7.94-1.41-3-1.41-3,7.6-4.39,5.22.82,5.21.81,1.41,3,1.42,3-7.61,4.39-5.21-.82Zm-13.76-7.95-1.42-3-1.41-3,7.61-4.39,5.21.81,5.22.82,1.41,3,1.41,3-7.6,4.39-5.22-.81Zm-13.77-8-1.41-3-1.41-3,7.6-4.39,5.22.82,5.21.81,1.42,3,1.41,3L217,249.86l-5.21-.81Zm-13.76-7.94-1.41-3-1.42-3,7.61-4.39,5.22.82,5.21.82,1.41,3,1.42,3-7.61,4.39L198,241.1ZM179,232.34l-1.42-3-1.41-3,7.61-4.39,5.21.81,5.22.82,1.41,3,1.41,3-7.6,4.39-5.22-.81Zm-13.77-8-1.41-3-1.41-3,7.6-4.39,5.22.82,5.21.81,1.42,3,1.41,3L175.7,226l-5.21-.81Zm-13.76-7.94-1.41-3-1.42-3,7.61-4.39,5.21.82,5.22.82,1.41,3,1.41,3-7.6,4.39-5.22-.82Zm-13.77-7.95-1.41-3-1.41-3,7.6-4.39,5.22.81,5.21.82,1.42,3,1.41,3-7.61,4.39-5.21-.81ZM124,200.55l-1.41-3-1.41-3,7.6-4.39L134,191l5.21.81,1.41,3,1.42,3-7.61,4.39-5.22-.81Zm-13.76-7.94-1.42-3-1.41-3,7.61-4.39,5.21.82,5.22.82,1.41,3,1.41,3-7.6,4.39-5.22-.82Zm-13.77-8-1.41-3-1.41-3,7.6-4.39,5.22.81,5.21.82,1.42,3,1.41,3-7.61,4.39-5.21-.81Zm-13.76-7.95-1.41-3-1.42-3,7.61-4.39,5.21.82,5.22.81,1.41,3,1.41,3-7.6,4.39-5.22-.81Zm-13.77-7.94-1.41-3-1.41-3,7.6-4.39,5.22.82,5.21.82,1.42,3L87,166l-7.6,4.39-5.22-.82Zm-13.76-8-1.41-3-1.41-3,7.6-4.39,5.22.81,5.21.82,1.41,3,1.42,3-7.61,4.39-5.21-.81ZM41.4,152.87l-1.42-3-1.41-3,7.61-4.39,5.21.82,5.22.81,1.41,3,1.41,3-7.6,4.4-5.22-.82Zm20.86-19.7,7.61-4.39,5.21.82,5.22.81,1.41,3,1.41,3-7.6,4.39L70.3,140l-5.21-.81-1.42-3ZM86,119.5l7.61-4.4,5.21.82,5.22.82,1.41,3,1.41,3-7.6,4.39L94,126.33l-5.21-.81-1.41-3Zm23.69-13.68,7.61-4.39,5.21.81,5.22.82,1.41,3,1.42,3-7.61,4.39-5.22-.81-5.21-.82-1.41-3Zm23.7-13.68,7.6-4.39,5.22.81,5.21.82,1.41,3,1.42,3-7.61,4.39L141.38,99l-5.22-.82-1.41-3ZM157,78.46l7.6-4.39,5.22.82,5.21.81,1.42,3,1.41,3-7.61,4.4-5.21-.82-5.22-.82-1.41-3Zm23.69-13.68,7.6-4.39,5.22.82,5.21.81,1.42,3,1.41,3L194,72.44l-5.21-.82-5.22-.81-1.41-3Zm23.69-13.67,7.6-4.4,5.22.82,5.21.82,1.42,3,1.41,3-7.61,4.39-5.21-.82-5.22-.81-1.41-3ZM228.1,37.43,235.7,33l5.22.81,5.22.82,1.41,3,1.41,3-7.6,4.39-5.22-.81-5.22-.82-1.41-3Zm23.69-13.68,7.61-4.39,5.21.81,5.22.82,1.41,3,1.41,3-7.6,4.39-5.22-.81-5.21-.82-1.42-3Zm31.8,5.19L285,32l1.42,3-7.61,4.39-5.21-.82-5.22-.81-1.41-3-1.41-3,7.6-4.39,5.22.81Zm13.76,7.94,1.42,3,1.41,3-7.61,4.4-5.21-.82-5.22-.82-1.41-3-1.41-3,7.6-4.39,5.22.82Zm13.77,7.95,1.41,3,1.41,3-7.6,4.39-5.22-.81-5.21-.82-1.41-3-1.42-3,7.61-4.39,5.21.81Zm13.76,8,1.42,3,1.41,3-7.61,4.39-5.21-.82-5.22-.81-1.41-3-1.41-3,7.6-4.4,5.22.82Zm13.77,7.94,1.41,3,1.41,3-7.6,4.4-5.22-.82-5.21-.82-1.42-3-1.41-3,7.61-4.39,5.21.82Zm13.76,8,1.41,3,1.42,3-7.61,4.39-5.22-.81-5.21-.82-1.41-3-1.42-3L342,67l5.22.81Zm13.76,8,1.42,3,1.41,3L361.39,87l-5.21-.82L351,85.4l-1.41-3-1.41-3,7.6-4.4,5.22.82Zm13.77,7.94,1.41,3,1.41,3-7.6,4.4-5.22-.82-5.21-.82-1.41-3-1.42-3,7.61-4.39,5.21.82Zm13.76,8,1.41,3,1.42,3-7.61,4.39-5.21-.81-5.22-.82-1.41-3-1.41-3,7.6-4.39,5.22.81Zm13.77,7.95,1.41,3,1.41,3-7.6,4.39-5.22-.82-5.21-.81-1.42-3-1.41-3,7.61-4.4,5.21.82Zm13.76,7.94,1.41,3,1.42,3-7.61,4.4-5.22-.82-5.21-.82-1.41-3-1.42-3,7.61-4.39,5.22.82ZM435,116.35l1.42,3,1.41,3-7.61,4.39L425,126l-5.22-.82-1.41-3-1.41-3,7.6-4.39,5.22.81Zm13.77,8,1.41,3,1.41,3-7.6,4.39-5.22-.82-5.21-.81-1.42-3-1.41-3,7.61-4.4,5.21.82Zm13.76,7.94,1.41,3,1.42,3-7.61,4.4-5.21-.82-5.22-.82-1.41-3-1.41-3,7.6-4.39,5.22.82Zm13.77,7.95,1.41,3,1.41,3-7.6,4.39-5.22-.81-5.21-.82-1.42-3-1.41-3,7.61-4.39,5.21.81Zm13.76,7.95,1.41,3,1.42,3-7.61,4.39-5.22-.82-5.21-.81-1.41-3-1.42-3,7.61-4.4,5.21.82Zm13.76,7.94,1.42,3,1.41,3L499,166.5l-5.21-.82-5.22-.82-1.41-3-1.41-3,7.6-4.39,5.22.82ZM517.58,164l1.41,3,1.41,3-7.6,4.39-5.22-.81-5.21-.82-1.42-3-1.41-3,7.61-4.39,5.21.81ZM531.34,172l1.41,3,1.42,3-7.61,4.39-5.21-.82-5.22-.81-1.41-3-1.41-3,7.6-4.4,5.22.82Zm13.77,7.94,1.41,3,1.41,3-7.6,4.4-5.22-.82-5.22-.82-1.41-3-1.41-3,7.61-4.39,5.21.82Zm13.76,8,1.41,3,1.42,3-7.61,4.39-5.22-.81-5.21-.82-1.41-3-1.42-3,7.61-4.39,5.21.81Zm13.76,7.95,1.42,3,1.41,3-7.61,4.39-5.21-.82-5.22-.81-1.41-3-1.41-3,7.6-4.4,5.22.82Zm13.77,7.94,1.41,3,1.41,3-7.6,4.39-5.22-.81-5.21-.82-1.42-3-1.41-3,7.61-4.39,5.21.82Zm13.76,8,1.41,3,1.42,3-7.61,4.39-5.21-.81-5.22-.82-1.41-3-1.41-3,7.6-4.39,5.22.81Zm13.77,7.94,1.41,3,1.41,3-7.6,4.39-5.22-.82-5.22-.81-1.41-3-1.41-3,7.6-4.39,5.22.82Zm13.76,7.95,1.41,3,1.42,3L622.91,238l-5.22-.81-5.21-.82-1.41-3-1.42-3,7.61-4.39,5.21.82Zm13.76,8,1.42,3,1.41,3L636.67,246l-5.21-.81-5.22-.82-1.41-3-1.41-3,7.6-4.39,5.22.81Zm-2.14,16.83-7.6,4.39-5.22-.81-5.21-.82-1.41-3-1.42-3,7.61-4.39,5.21.82,5.22.81,1.41,3Zm-23.69,13.68-7.6,4.39-5.22-.81-5.21-.82-1.41-3-1.42-3,7.61-4.39,5.21.81,5.22.82,1.41,3Zm-23.69,13.68-7.6,4.39-5.22-.82-5.21-.81-1.42-3-1.41-3,7.61-4.39,5.21.81,5.22.82,1.41,3Zm-23.69,13.68-7.6,4.39-5.22-.82-5.21-.81-1.42-3-1.41-3,7.61-4.39,5.21.82,5.22.81,1.41,3ZM544.55,307.1l-7.6,4.39-5.22-.82-5.22-.82-1.41-3-1.41-3,7.6-4.39,5.22.82,5.22.81,1.41,3Zm-23.69,13.67-7.61,4.39-5.21-.81-5.22-.82-1.41-3-1.41-3,7.6-4.39,5.22.82,5.21.81,1.42,3Zm-23.69,13.68-7.61,4.39-5.21-.81-5.22-.82-1.41-3-1.41-3,7.6-4.39,5.22.81,5.21.82,1.42,3Zm-23.69,13.68-7.61,4.39-5.21-.82-5.22-.81-1.41-3-1.41-3,7.6-4.39,5.22.81,5.21.82,1.41,3Zm-23.69,13.68-7.61,4.39-5.21-.82-5.22-.81-1.41-3-1.41-3,7.6-4.39,5.22.82,5.21.82,1.41,3ZM418,356.62l-1.42-3-1.41-3,7.61-4.39L428,347l5.22.82,1.41,3,1.41,3-7.6,4.39-5.22-.81Zm-13.77-7.95-1.41-3-1.41-3,7.6-4.39,5.22.82,5.21.81,1.42,3,1.41,3-7.61,4.39-5.21-.81Zm-13.76-7.94-1.41-3-1.42-3,7.61-4.4,5.21.82,5.22.82,1.41,3,1.41,3-7.6,4.39-5.22-.82Zm-13.77-8-1.41-3-1.41-3,7.6-4.39,5.22.81,5.22.82,1.41,3,1.41,3-7.6,4.39-5.22-.81Zm-13.76-7.95-1.41-3-1.41-3,7.6-4.39,5.22.82,5.21.81,1.41,3,1.42,3-7.61,4.39-5.21-.81Zm-13.76-7.94-1.42-3-1.41-3,7.61-4.4,5.21.82,5.22.82,1.41,3,1.41,3-7.6,4.39-5.22-.82Zm-13.77-7.95-1.41-3-1.41-3,7.6-4.39,5.22.81,5.21.82,1.42,3,1.41,3-7.61,4.39-5.21-.81ZM321.64,301l-1.41-3-1.42-3,7.61-4.39,5.21.82,5.22.81,1.41,3,1.41,3-7.6,4.4-5.22-.82Zm-13.76-7.94-1.42-3-1.41-3,7.61-4.4,5.21.82,5.22.82,1.41,3,1.41,3-7.6,4.39-5.22-.82Zm-13.77-7.95-1.41-3-1.41-3,7.6-4.39,5.22.81,5.21.82,1.41,3,1.42,3-7.61,4.39-5.21-.81Zm-13.76-8-1.42-3-1.41-3,7.61-4.39,5.21.82,5.22.81,1.41,3,1.41,3-7.6,4.4-5.22-.82Zm-13.77-7.94-1.41-3-1.41-3,7.6-4.4,5.22.82,5.21.82,1.42,3,1.41,3L277,270.84,271.8,270Zm-13.76-7.95-1.41-3-1.42-3,7.61-4.39,5.21.81,5.22.82,1.41,3,1.41,3-7.6,4.39-5.22-.81Zm-13.76-7.95-1.42-3-1.41-3,7.61-4.39,5.21.82,5.22.81,1.41,3,1.41,3-7.6,4.4-5.22-.82Zm-13.77-7.94-1.41-3-1.41-3,7.6-4.4,5.22.82,5.21.82,1.41,3,1.42,3L235.72,247l-5.21-.82Zm-13.76-8-1.42-3-1.41-3,7.61-4.39,5.21.81,5.22.82,1.41,3,1.41,3-7.6,4.39-5.22-.81Zm-13.77-7.95-1.41-3-1.41-3,7.6-4.39,5.22.82,5.21.81,1.42,3,1.41,3-7.61,4.4-5.21-.82ZM184,221.53l-1.41-3-1.42-3,7.61-4.4,5.21.82,5.22.82,1.41,3,1.42,3-7.61,4.39-5.22-.82Zm-13.76-7.95-1.42-3-1.41-3,7.61-4.39,5.21.81,5.22.82,1.41,3,1.41,3-7.6,4.39-5.22-.81Zm-13.77-8-1.41-3-1.41-3,7.6-4.39,5.22.82,5.21.81,1.41,3,1.42,3-7.61,4.39-5.21-.82Zm-13.76-7.94-1.42-3-1.41-3,7.61-4.4,5.21.82,5.22.82,1.41,3,1.41,3-7.6,4.39-5.22-.82Zm-13.77-7.95-1.41-3-1.41-3,7.6-4.39,5.22.81,5.21.82,1.42,3,1.41,3-7.61,4.39-5.21-.81Zm-13.76-8-1.41-3-1.42-3,7.61-4.39,5.21.82,5.22.81,1.41,3,1.42,3-7.61,4.39-5.22-.82Zm-13.76-7.94-1.42-3-1.41-3,7.61-4.39,5.21.81,5.22.82,1.41,3,1.41,3-7.6,4.39-5.22-.82ZM87.65,165.9l-1.41-3-1.41-3,7.6-4.39,5.22.81,5.21.82,1.42,3,1.41,3-7.61,4.39-5.21-.81Zm-13.76-8-1.41-3-1.42-3,7.61-4.39,5.21.82,5.22.81,1.41,3,1.41,3-7.6,4.39-5.22-.82ZM60.12,150l-1.41-3-1.41-3,7.6-4.39,5.22.81,5.21.82,1.42,3,1.41,3-7.61,4.39-5.21-.82ZM81,130.31l7.6-4.39,5.22.81,5.22.82,1.41,3,1.41,3L94.25,138,89,137.15l-5.21-.82-1.42-3Zm23.69-13.68,7.61-4.39,5.21.81,5.22.82,1.41,3,1.41,3-7.6,4.39-5.22-.81-5.21-.82-1.42-3ZM128.37,103,136,98.56l5.21.82,5.22.81,1.41,3,1.41,3-7.6,4.4-5.22-.82L131.2,109l-1.42-3Zm23.69-13.68,7.61-4.39,5.21.82,5.22.81,1.41,3,1.41,3-7.6,4.39-5.22-.82-5.21-.81-1.41-3ZM175.75,75.6l7.61-4.39,5.21.81,5.22.82,1.41,3,1.41,3L189,83.25l-5.22-.82-5.21-.81-1.41-3Zm23.7-13.68,7.6-4.39,5.22.81,5.21.82,1.41,3,1.42,3-7.61,4.39-5.21-.81-5.22-.82-1.41-3Zm23.69-13.68,7.6-4.39,5.22.81,5.21.82,1.41,3,1.42,3-7.61,4.39-5.21-.81L226,54.26l-1.41-3Zm23.69-13.68,7.6-4.39,5.22.82,5.21.81,1.42,3,1.41,3-7.61,4.39-5.21-.81-5.22-.82-1.41-3Zm31.8,5.19,1.41,3,1.41,3-7.6,4.39-5.22-.81-5.21-.82-1.42-3-1.41-3,7.61-4.39,5.21.81Zm13.76,8,1.41,3,1.42,3-7.61,4.39-5.21-.82-5.22-.81-1.41-3-1.41-3,7.6-4.39,5.22.82Zm13.76,7.94,1.42,3,1.41,3-7.61,4.39-5.21-.81-5.22-.82-1.41-3-1.41-3,7.6-4.39,5.22.82Zm13.77,8,1.41,3,1.41,3L315.14,74l-5.22-.81-5.21-.82-1.41-3-1.42-3L309.49,62l5.21.81Zm13.76,8,1.42,3,1.41,3L328.9,82l-5.21-.82-5.22-.81-1.41-3-1.41-3,7.6-4.39,5.22.82Zm13.77,7.94,1.41,3,1.41,3-7.6,4.39-5.22-.81-5.21-.82-1.42-3-1.41-3L337,77.85l5.21.82Zm13.76,8,1.41,3,1.42,3-7.61,4.39L351.22,97,346,96.21l-1.41-3-1.42-3,7.61-4.39,5.22.81ZM375,95.38l1.41,3,1.41,3-7.61,4.39L365,105l-5.22-.81-1.41-3-1.41-3,7.6-4.39,5.22.82Zm13.76,7.94,1.41,3,1.41,3-7.6,4.39-5.22-.81-5.21-.82-1.41-3-1.42-3,7.61-4.39,5.21.82Zm13.76,8,1.42,3,1.41,3-7.61,4.39-5.21-.81-5.22-.82-1.41-3-1.41-3,7.6-4.39,5.22.81Zm13.77,7.94,1.41,3,1.41,3-7.6,4.39-5.22-.82-5.21-.81-1.42-3-1.41-3,7.61-4.39,5.21.82Zm13.76,8,1.41,3,1.42,3-7.61,4.39-5.21-.81-5.22-.82-1.41-3-1.42-3,7.61-4.39,5.22.82Zm13.76,8,1.42,3,1.41,3L439,145.52l-5.21-.81-5.22-.82-1.41-3-1.41-3,7.6-4.39,5.22.81Zm13.77,7.94,1.41,3,1.41,3-7.6,4.39-5.22-.82-5.21-.81-1.42-3-1.41-3,7.61-4.39,5.21.82ZM471.32,151l1.42,3,1.41,3-7.61,4.39-5.21-.81-5.22-.82-1.41-3-1.41-3,7.6-4.39,5.22.82ZM485.09,159l1.41,3,1.41,3-7.6,4.39-5.22-.81-5.21-.82-1.42-3-1.41-3,7.61-4.39,5.21.81Zm13.76,7.94,1.41,3,1.42,3-7.61,4.39-5.22-.82-5.21-.81-1.41-3-1.42-3,7.61-4.39,5.22.82Zm13.76,8,1.42,3,1.41,3-7.61,4.39-5.21-.81-5.22-.82-1.41-3-1.41-3,7.6-4.39,5.22.82Zm13.77,7.95,1.41,3,1.41,3-7.6,4.39-5.22-.81-5.21-.82-1.42-3-1.41-3,7.61-4.39,5.21.81Zm13.76,7.94,1.41,3,1.42,3-7.61,4.39-5.21-.82-5.22-.81-1.41-3-1.41-3,7.6-4.39,5.22.82Zm13.77,8,1.41,3,1.41,3-7.6,4.39-5.22-.81-5.21-.82-1.42-3-1.41-3,7.61-4.39,5.21.82Zm13.76,7.95,1.41,3,1.42,3L562.89,217l-5.22-.81-5.21-.82-1.41-3-1.42-3,7.61-4.39,5.21.81Zm13.76,7.94,1.42,3,1.41,3L576.65,225l-5.21-.82-5.22-.81-1.41-3-1.41-3,7.6-4.39,5.22.82Zm13.77,8,1.41,3,1.41,3-7.6,4.39-5.22-.81L580,231.3l-1.42-3-1.41-3,7.61-4.39,5.21.82ZM609,230.47l1.41,3,1.42,3-7.61,4.39-5.21-.81-5.22-.82-1.41-3-1.41-3,7.6-4.39,5.22.81Zm13.77,7.94,1.41,3,1.41,3-7.6,4.39-5.22-.82-5.21-.81-1.42-3-1.41-3,7.61-4.39,5.21.82Zm-2.14,16.84L613,259.64l-5.21-.82-5.22-.81-1.41-3-1.41-3,7.6-4.39,5.22.81,5.21.82,1.41,3ZM596.9,268.93l-7.61,4.39-5.21-.82-5.22-.81-1.41-3-1.41-3,7.6-4.39,5.22.82,5.21.81,1.41,3ZM573.2,282.6l-7.6,4.4-5.22-.82-5.21-.82-1.41-3-1.42-3L560,275l5.21.82,5.22.81,1.41,3Zm-23.69,13.68-7.6,4.39-5.22-.81-5.21-.82-1.41-3-1.42-3,7.61-4.39,5.21.82,5.22.81,1.41,3ZM525.82,310l-7.6,4.39-5.22-.81-5.21-.82-1.42-3-1.41-3,7.61-4.39,5.21.81,5.22.82,1.41,3Zm-23.69,13.68-7.6,4.39-5.22-.82-5.21-.81-1.42-3-1.41-3,7.61-4.39,5.21.81,5.22.82,1.41,3Zm-23.69,13.68-7.6,4.39-5.22-.82-5.22-.81-1.41-3-1.41-3,7.61-4.39,5.21.82,5.22.81,1.41,3ZM454.75,351l-7.61,4.4-5.21-.82-5.22-.82-1.41-3-1.41-3,7.6-4.39,5.22.82,5.21.81,1.42,3ZM423,345.81l-1.41-3-1.42-3,7.61-4.39,5.22.81,5.21.82,1.41,3,1.42,3-7.61,4.39-5.21-.82Zm-13.76-7.95-1.42-3-1.41-3,7.61-4.39,5.21.81,5.22.82,1.41,3,1.41,3-7.6,4.39-5.22-.81Zm-13.77-7.95-1.41-3-1.41-3,7.6-4.39,5.22.82,5.21.81,1.42,3,1.41,3-7.61,4.4-5.21-.82ZM381.66,322l-1.41-3-1.42-3,7.61-4.39,5.21.81,5.22.82,1.41,3,1.41,3-7.6,4.39-5.22-.82Zm-13.77-8-1.41-3-1.41-3,7.6-4.39,5.22.81,5.21.82,1.42,3,1.41,3-7.61,4.39-5.21-.81Zm-13.76-7.94-1.41-3-1.41-3,7.6-4.39,5.22.82,5.21.81,1.41,3,1.42,3-7.61,4.39-5.21-.82Zm-13.76-7.95-1.42-3-1.41-3,7.61-4.39,5.21.81,5.22.82,1.41,3,1.41,3-7.6,4.39-5.22-.82Zm-13.77-7.95-1.41-3-1.41-3,7.6-4.39,5.22.81,5.21.82,1.42,3,1.41,3L337,291.81l-5.21-.81Zm-13.76-7.94-1.41-3-1.42-3,7.61-4.39,5.21.82,5.22.81,1.41,3,1.41,3-7.6,4.39-5.22-.82Zm-13.77-7.95-1.41-3-1.41-3,7.6-4.39,5.22.81,5.21.82,1.42,3,1.41,3-7.61,4.39-5.21-.82Zm-13.76-8-1.41-3-1.41-3,7.6-4.39,5.22.81,5.21.82,1.41,3,1.42,3L295.74,268l-5.21-.81Zm-13.76-7.94-1.42-3-1.41-3,7.61-4.39,5.21.82,5.22.81,1.41,3,1.41,3L282,260l-5.22-.82Zm-13.77-7.95-1.41-3-1.41-3,7.6-4.39,5.22.81,5.21.82,1.42,3,1.41,3-7.61,4.39-5.21-.82ZM244,242.5l-1.41-3-1.42-3,7.61-4.39,5.21.81,5.22.82,1.41,3,1.41,3-7.6,4.39-5.22-.81Zm-13.77-7.94-1.41-3-1.41-3,7.6-4.39,5.22.82,5.22.81,1.41,3,1.41,3-7.6,4.39-5.22-.82Zm-13.76-7.95-1.41-3-1.41-3,7.6-4.39,5.22.81,5.21.82,1.41,3,1.42,3-7.61,4.39-5.21-.82Zm-13.76-8-1.42-3-1.41-3,7.61-4.39,5.21.81,5.22.82,1.41,3,1.41,3-7.6,4.39-5.22-.81ZM189,210.72l-1.41-3-1.41-3,7.6-4.39,5.22.82,5.21.81,1.42,3,1.41,3-7.61,4.39-5.21-.82Zm-13.76-7.95-1.41-3-1.42-3,7.61-4.39,5.21.81,5.22.82,1.41,3,1.42,3-7.61,4.39-5.22-.82Zm-13.76-8-1.42-3-1.41-3,7.61-4.39,5.21.81,5.22.82,1.41,3,1.41,3-7.6,4.39-5.22-.81Zm-13.77-7.94-1.41-3-1.41-3,7.6-4.39,5.22.82,5.21.81,1.41,3,1.42,3-7.61,4.39-5.21-.82Zm-13.76-7.95-1.42-3-1.41-3,7.61-4.39,5.21.81,5.22.82,1.41,3,1.41,3-7.6,4.39-5.22-.82Zm-13.77-8-1.41-3-1.41-3,7.6-4.39,5.22.81,5.21.82,1.42,3,1.41,3-7.61,4.39-5.21-.81ZM106.38,163,105,160l-1.42-3,7.61-4.39,5.21.82,5.22.81,1.41,3,1.41,3-7.6,4.39-5.22-.82Zm-13.76-7.95-1.42-3-1.41-3,7.61-4.39,5.21.81,5.22.82,1.41,3,1.41,3-7.6,4.39-5.22-.82Zm-13.77-8-1.41-3-1.41-3,7.6-4.39,5.22.82,5.21.81,1.41,3,1.42,3-7.61,4.39L84.07,148Zm20.87-19.7,7.6-4.39,5.22.82,5.21.81,1.42,3,1.41,3L113,135.1l-5.21-.82-5.22-.82-1.41-3Zm23.69-13.68,7.6-4.39,5.22.82,5.21.81,1.42,3,1.41,3-7.61,4.39-5.21-.82-5.22-.81-1.41-3Zm23.69-13.67,7.6-4.39,5.22.81,5.22.82,1.41,3,1.41,3-7.6,4.39-5.22-.82-5.22-.81-1.41-3Zm23.69-13.68L178.4,82l5.21.81,5.22.82,1.41,3,1.41,3-7.6,4.39-5.22-.81-5.21-.82-1.42-3Zm23.69-13.68,7.61-4.39,5.21.81,5.22.82,1.41,3,1.41,3-7.6,4.39-5.22-.81-5.21-.82-1.42-3Zm23.69-13.68,7.61-4.39,5.21.82,5.22.81,1.41,3,1.41,3-7.6,4.4-5.22-.82L221,65.07l-1.41-3Zm23.69-13.68L249.47,41l5.21.82,5.22.81,1.41,3,1.41,3L255.12,53l-5.22-.82-5.21-.81-1.41-3Zm31.8,5.19,1.42,3,1.41,3L268.88,61l-5.21-.81-5.22-.82-1.41-3-1.41-3,7.6-4.39,5.22.82Zm13.77,7.95,1.41,3,1.41,3-7.6,4.39-5.22-.81-5.21-.82-1.42-3-1.41-3L277,56.88l5.21.81Zm13.76,7.94,1.41,3,1.42,3-7.61,4.39-5.21-.82L286,75.24l-1.41-3-1.41-3,7.6-4.39,5.22.82Zm13.77,8,1.41,3,1.41,3-7.6,4.39L305,84l-5.22-.82-1.41-3-1.41-3,7.6-4.39,5.22.82Zm13.76,7.95,1.41,3,1.41,3-7.6,4.39-5.22-.82-5.21-.81-1.41-3-1.42-3,7.61-4.39,5.21.81Zm13.76,7.94,1.42,3,1.41,3-7.61,4.39-5.21-.82-5.22-.81-1.41-3-1.41-3,7.6-4.39,5.22.82Zm13.77,7.95,1.41,3,1.41,3-7.6,4.39-5.22-.81L341,107l-1.42-3-1.41-3,7.61-4.39,5.21.82Zm13.76,8,1.41,3,1.42,3-7.61,4.39-5.21-.82L354.8,115l-1.41-3L352,109l7.6-4.39,5.22.81Zm13.77,7.94,1.41,3,1.41,3-7.6,4.39-5.22-.82-5.22-.81-1.41-3-1.41-3,7.6-4.39,5.22.82Zm13.76,8,1.41,3,1.41,3-7.6,4.39-5.22-.81-5.21-.82-1.41-3-1.42-3,7.61-4.39,5.21.82Zm13.76,8,1.42,3,1.41,3-7.61,4.39-5.21-.82-5.22-.81-1.41-3-1.41-3,7.6-4.39,5.22.81ZM425.07,138l1.41,3,1.41,3-7.6,4.39-5.22-.82-5.21-.81-1.42-3-1.41-3,7.61-4.39,5.21.82Zm13.76,7.95,1.41,3,1.42,3-7.61,4.39-5.21-.81-5.22-.82-1.41-3-1.41-3,7.6-4.39,5.22.81Zm13.76,8,1.42,3,1.41,3-7.61,4.39-5.21-.82-5.22-.81-1.41-3-1.41-3,7.6-4.39,5.22.81Zm13.77,7.94,1.41,3,1.41,3-7.6,4.39-5.22-.82-5.21-.81-1.41-3-1.42-3,7.61-4.39,5.21.82Zm13.76,7.95,1.42,3,1.41,3-7.61,4.39-5.21-.81-5.22-.82-1.41-3-1.41-3,7.6-4.39,5.22.81Zm13.77,8,1.41,3,1.41,3-7.6,4.39-5.22-.82-5.21-.81-1.42-3-1.41-3,7.61-4.39,5.21.81Zm13.76,7.94,1.41,3,1.42,3-7.61,4.39-5.21-.82-5.22-.81-1.41-3-1.42-3,7.61-4.39,5.22.82Zm13.76,7.95,1.42,3,1.41,3L516.63,204l-5.21-.81-5.22-.82-1.41-3-1.41-3L511,192l5.22.81Zm13.77,8,1.41,3,1.41,3L530.4,212l-5.22-.82-5.21-.81-1.41-3-1.42-3,7.61-4.39,5.21.81Zm13.76,7.94,1.42,3,1.41,3-7.61,4.39-5.21-.82-5.22-.81-1.41-3-1.41-3,7.6-4.39,5.22.82Zm13.77,7.95,1.41,3,1.41,3-7.6,4.39-5.22-.81-5.21-.82-1.42-3-1.41-3,7.61-4.39,5.21.81Zm13.76,7.95,1.41,3,1.42,3-7.61,4.39-5.22-.82-5.21-.81-1.41-3-1.42-3,7.61-4.39,5.22.81Zm13.76,7.94,1.42,3,1.41,3-7.61,4.39-5.21-.82-5.22-.81-1.41-3-1.41-3,7.6-4.39,5.22.82ZM604,241.28l1.41,3,1.41,3-7.6,4.39-5.22-.81-5.21-.82-1.42-3L586,244l7.61-4.39,5.21.81Zm-2.14,16.83-7.61,4.4-5.21-.82-5.22-.82-1.41-3-1.41-3,7.6-4.39,5.22.82,5.21.81,1.42,3Zm-23.69,13.68-7.61,4.39-5.21-.81-5.22-.82-1.41-3-1.41-3,7.6-4.39,5.22.81,5.21.82,1.42,3Zm-23.69,13.68-7.61,4.39-5.21-.81-5.22-.82-1.41-3-1.41-3,7.6-4.39,5.22.81,5.21.82,1.42,3Zm-23.69,13.68-7.61,4.39-5.21-.82-5.22-.81-1.41-3-1.41-3,7.6-4.39,5.22.81,5.21.82,1.41,3ZM507.1,312.83l-7.61,4.39-5.21-.82-5.22-.81-1.41-3-1.42-3,7.61-4.39,5.22.82,5.21.81,1.41,3ZM483.4,326.5l-7.6,4.4-5.22-.82-5.21-.82-1.41-3-1.42-3,7.61-4.39,5.21.82,5.22.81,1.41,3Zm-23.69,13.68-7.6,4.39-5.22-.81-5.21-.82-1.41-3-1.42-3,7.61-4.39,5.21.82,5.22.81,1.41,3ZM427.91,335l-1.41-3-1.41-3,7.6-4.39,5.22.82,5.21.81,1.42,3,1.41,3-7.61,4.39-5.21-.82Zm-13.76-7.95-1.41-3-1.42-3,7.61-4.39,5.22.81,5.21.82,1.41,3,1.42,3-7.61,4.39-5.22-.82Zm-13.76-7.95-1.42-3-1.41-3,7.61-4.39,5.21.82,5.22.81,1.41,3,1.41,3-7.6,4.39-5.22-.81Zm-13.77-7.94-1.41-3-1.41-3,7.6-4.39,5.22.82,5.21.81,1.42,3,1.41,3-7.61,4.39-5.21-.82Zm-13.76-8-1.41-3-1.42-3,7.61-4.39,5.21.81,5.22.82,1.41,3,1.41,3-7.6,4.39-5.22-.82Zm-13.77-7.95-1.41-3-1.41-3,7.6-4.39,5.22.82,5.21.81,1.42,3,1.41,3-7.61,4.39-5.21-.81Zm-13.76-7.94-1.41-3-1.42-3,7.61-4.39,5.22.82,5.21.81,1.41,3,1.42,3L355.76,289l-5.21-.82Zm-13.76-7.95-1.42-3-1.41-3,7.61-4.39,5.21.81,5.22.82,1.41,3,1.41,3L342,281l-5.22-.81Zm-13.77-7.95-1.41-3-1.41-3,7.6-4.39,5.22.82,5.21.81,1.42,3,1.41,3-7.61,4.39-5.21-.81ZM304,263.48l-1.41-3-1.42-3,7.61-4.39,5.21.82,5.22.81,1.41,3,1.41,3-7.6,4.39-5.22-.82Zm-13.77-8-1.41-3-1.41-3,7.6-4.39,5.22.81,5.21.82,1.42,3,1.41,3-7.61,4.39-5.21-.81Zm-13.76-7.95-1.41-3-1.42-3,7.61-4.39,5.22.82,5.21.81,1.41,3,1.42,3-7.61,4.39-5.21-.81Zm-13.76-7.94-1.42-3-1.41-3,7.61-4.39,5.21.82,5.22.81,1.41,3,1.41,3-7.6,4.39-5.22-.82ZM249,231.69l-1.41-3-1.41-3,7.6-4.39,5.22.81,5.21.82,1.42,3,1.41,3-7.61,4.39-5.21-.81Zm-13.76-7.95-1.41-3-1.42-3,7.61-4.39,5.21.82,5.22.81,1.41,3,1.41,3-7.6,4.39-5.22-.81Zm-13.77-7.94-1.41-3-1.41-3,7.6-4.39,5.22.82,5.22.81,1.41,3,1.41,3-7.6,4.39-5.22-.82Zm-13.76-8-1.41-3-1.41-3,7.6-4.39,5.22.81,5.21.82,1.41,3,1.42,3-7.61,4.39-5.21-.81Zm-13.76-7.95-1.42-3-1.41-3,7.61-4.39,5.21.82,5.22.81,1.41,3,1.41,3-7.6,4.39-5.22-.81ZM180.16,192l-1.41-3-1.41-3,7.6-4.39,5.22.82,5.21.81,1.42,3,1.41,3-7.61,4.39-5.21-.82Zm-13.76-8L165,181l-1.42-3,7.61-4.39,5.21.81,5.22.82,1.41,3,1.41,3-7.6,4.39-5.22-.81Zm-13.77-7.95-1.41-3-1.41-3,7.6-4.39,5.22.82,5.22.81,1.41,3,1.41,3-7.61,4.39-5.21-.81Zm-13.76-7.94-1.41-3-1.41-3,7.6-4.39,5.22.82,5.21.81,1.41,3,1.42,3-7.61,4.39-5.21-.82Zm-13.76-8-1.42-3-1.41-3,7.61-4.39,5.21.81,5.22.82,1.41,3,1.41,3-7.6,4.39-5.22-.81Zm-13.77-7.95-1.41-3-1.41-3,7.6-4.39,5.22.82,5.21.81,1.42,3,1.41,3-7.61,4.39-5.21-.81Zm-13.76-7.94-1.41-3-1.42-3,7.61-4.39,5.21.82,5.22.81,1.41,3,1.41,3-7.6,4.39-5.22-.82Zm20.86-19.7,7.61-4.39,5.22.81,5.21.82,1.41,3,1.42,3-7.61,4.39-5.21-.82-5.22-.81-1.41-3Zm23.7-13.68,7.6-4.39,5.22.81,5.21.82,1.41,3,1.42,3-7.61,4.39-5.21-.81-5.22-.82-1.41-3Zm23.69-13.68,7.6-4.39,5.22.82,5.21.81,1.42,3,1.41,3-7.61,4.39-5.21-.81-5.22-.82-1.41-3Zm23.69-13.68,7.6-4.39,5.22.82,5.21.81,1.42,3,1.41,3-7.61,4.39-5.21-.82-5.22-.82-1.41-3Zm23.69-13.68,7.6-4.39,5.22.82,5.21.81,1.42,3,1.41,3-7.61,4.39-5.21-.82L216,75.89l-1.41-3ZM236.9,56.19l7.6-4.39,5.22.81,5.22.82,1.41,3,1.41,3-7.6,4.39L244.94,63l-5.21-.81-1.42-3Zm31.8,5.18,1.41,3,1.41,3-7.6,4.39L258.7,71l-5.21-.81-1.41-3-1.42-3,7.61-4.39,5.21.82Zm13.76,7.95,1.42,3,1.41,3-7.61,4.39-5.21-.81-5.22-.82-1.41-3-1.41-3,7.6-4.39,5.22.81Zm13.77,8,1.41,3,1.41,3-7.6,4.39-5.22-.82L281,86.05l-1.42-3-1.41-3,7.61-4.39,5.21.81ZM310,85.21l1.41,3,1.42,3-7.61,4.39L300,94.81,294.78,94l-1.41-3L292,88l7.6-4.39,5.22.82Zm13.77,8,1.41,3,1.41,3-7.6,4.39-5.22-.81-5.21-.82-1.42-3-1.41-3,7.6-4.39,5.22.81Zm13.76,8,1.41,3,1.41,3-7.6,4.39-5.22-.82-5.21-.81-1.41-3-1.42-3,7.61-4.39,5.21.81Zm13.76,7.94,1.42,3,1.41,3-7.61,4.39-5.21-.82-5.22-.81-1.41-3-1.41-3,7.6-4.39,5.22.82Zm13.77,8,1.41,3,1.41,3-7.6,4.39-5.22-.81-5.21-.82-1.42-3-1.41-3,7.61-4.39,5.21.81Zm13.76,8,1.41,3,1.42,3L374,135.36l-5.21-.82-5.22-.81-1.41-3-1.41-3,7.6-4.39,5.22.81Zm13.77,7.94,1.41,3,1.41,3-7.6,4.39-5.22-.82-5.22-.82-1.41-3-1.41-3,7.6-4.39,5.22.82Zm13.76,8,1.41,3,1.41,3-7.6,4.39-5.22-.81-5.21-.82-1.41-3-1.42-3,7.61-4.39,5.21.81Zm13.76,7.95,1.42,3,1.41,3-7.61,4.39-5.21-.82-5.22-.81-1.41-3-1.41-3,7.6-4.39,5.22.81Zm13.77,7.94,1.41,3,1.41,3-7.6,4.39-5.22-.82-5.21-.82-1.42-3-1.41-3,7.61-4.39,5.21.82Zm13.76,8,1.41,3,1.42,3-7.61,4.39-5.21-.81-5.22-.82-1.41-3-1.41-3,7.6-4.39,5.22.81Zm13.76,7.95,1.42,3,1.41,3L456.61,183l-5.21-.82-5.22-.81-1.41-3-1.41-3L451,171l5.22.81Zm13.77,7.94,1.41,3,1.41,3-7.6,4.39-5.22-.82-5.21-.82-1.41-3-1.42-3,7.61-4.39,5.21.82Zm13.76,8,1.42,3,1.41,3-7.61,4.39-5.21-.81-5.22-.82-1.41-3-1.41-3,7.6-4.39,5.22.81Zm13.77,7.95,1.41,3,1.41,3-7.6,4.39-5.22-.82-5.21-.81-1.42-3-1.41-3,7.61-4.39,5.21.81Zm13.76,7.94,1.41,3,1.42,3-7.61,4.4-5.21-.82-5.22-.82-1.41-3-1.41-3,7.6-4.39,5.22.82Zm13.77,8,1.41,3,1.41,3-7.61,4.39-5.21-.81-5.22-.82-1.41-3-1.41-3,7.6-4.39,5.22.81ZM544,220.31l1.41,3,1.41,3-7.6,4.39L534,229.9l-5.21-.81-1.41-3-1.42-3,7.61-4.4,5.21.82Zm13.76,7.94,1.42,3,1.41,3-7.61,4.4-5.21-.82-5.22-.82-1.41-3-1.41-3,7.6-4.39,5.22.82Zm13.77,7.95,1.41,3,1.41,3-7.6,4.39-5.22-.81L556.3,245l-1.42-3-1.41-3,7.61-4.39,5.21.81Zm13.76,8,1.41,3,1.42,3-7.61,4.39-5.21-.82-5.22-.81-1.41-3-1.42-3,7.61-4.4,5.22.82ZM583.13,261l-7.6,4.39-5.22-.81-5.21-.82-1.42-3-1.41-3,7.61-4.39,5.21.81,5.22.82,1.41,3Zm-23.69,13.68-7.6,4.39-5.22-.82-5.21-.81-1.42-3-1.41-3,7.61-4.39,5.21.81,5.22.82,1.41,3Zm-23.69,13.68-7.6,4.39-5.22-.82-5.22-.81-1.41-3-1.41-3,7.6-4.39,5.22.82,5.22.81,1.41,3ZM512.06,302l-7.61,4.4-5.21-.82-5.22-.82-1.41-3-1.41-3,7.6-4.39,5.22.82,5.21.81,1.42,3Zm-23.69,13.68-7.61,4.39-5.21-.81-5.22-.82-1.41-3-1.41-3,7.6-4.39,5.22.81,5.21.82,1.42,3Zm-23.69,13.68-7.61,4.39-5.21-.81-5.22-.82-1.41-3-1.41-3,7.6-4.39,5.22.81,5.21.82,1.41,3Zm-31.8-5.19-1.42-3-1.41-3,7.61-4.39,5.21.82,5.22.81,1.41,3,1.41,3-7.6,4.39-5.22-.81Zm-13.77-7.94-1.41-3-1.41-3,7.6-4.39,5.22.82,5.21.82,1.42,3,1.41,3-7.61,4.39-5.21-.82Zm-13.76-7.95-1.41-3-1.42-3,7.61-4.39,5.21.81,5.22.82,1.41,3,1.42,3-7.61,4.39-5.22-.81Zm-13.76-8-1.42-3-1.41-3,7.61-4.39,5.21.82,5.22.81,1.41,3,1.41,3L402,302l-5.22-.81Zm-13.77-7.94-1.41-3-1.41-3,7.6-4.39,5.22.82,5.21.82,1.41,3,1.42,3L388.25,294l-5.21-.82Zm-13.76-7.95-1.42-3-1.41-3,7.61-4.39,5.21.81,5.22.82,1.41,3,1.41,3-7.6,4.39-5.22-.81Zm-13.77-7.95-1.41-3-1.41-3,7.6-4.39,5.22.82,5.21.81,1.42,3,1.41,3-7.61,4.39-5.21-.81Zm-13.76-7.94-1.41-3-1.42-3,7.61-4.39,5.22.82,5.21.82,1.41,3,1.42,3L347,270.19l-5.22-.82Zm-13.76-7.95-1.42-3-1.41-3,7.61-4.39,5.21.81,5.22.82,1.41,3,1.41,3-7.6,4.39-5.22-.81Zm-13.77-8-1.41-3-1.41-3,7.6-4.39,5.22.82,5.21.81,1.41,3,1.42,3-7.61,4.39-5.21-.81Zm-13.76-7.94-1.42-3-1.41-3,7.61-4.4,5.21.82,5.22.82,1.41,3,1.41,3-7.6,4.39-5.22-.82Zm-13.77-7.95-1.41-3-1.41-3,7.6-4.39,5.22.81,5.21.82,1.42,3,1.41,3-7.61,4.39-5.21-.81Zm-13.76-8-1.41-3-1.42-3,7.61-4.39,5.22.82,5.21.81,1.41,3,1.42,3-7.61,4.4-5.21-.82ZM254,220.88l-1.42-3-1.41-3,7.61-4.4,5.21.82,5.22.82,1.41,3,1.41,3-7.6,4.39-5.22-.82Zm-13.77-7.95-1.41-3-1.41-3,7.6-4.39,5.22.81,5.21.82,1.42,3,1.41,3-7.61,4.39-5.21-.81Zm-13.76-8L225,202l-1.42-3,7.61-4.39,5.21.82,5.22.81,1.41,3,1.41,3-7.6,4.4-5.22-.82ZM212.65,197l-1.41-3-1.41-3,7.6-4.4,5.22.82,5.21.82,1.42,3,1.41,3-7.61,4.39-5.21-.82Zm-13.76-7.95-1.41-3-1.42-3,7.61-4.39,5.22.81,5.21.82,1.41,3,1.42,3-7.61,4.39-5.21-.81Zm-13.76-8-1.42-3-1.41-3,7.61-4.39,5.21.82,5.22.81,1.41,3,1.41,3-7.6,4.4-5.22-.82Zm-13.77-7.94-1.41-3-1.41-3,7.6-4.4,5.22.82,5.21.82,1.42,3,1.41,3-7.61,4.39-5.21-.82Zm-13.76-7.95-1.41-3-1.42-3,7.61-4.39,5.21.81,5.22.82,1.41,3,1.41,3-7.6,4.39-5.22-.81Zm-13.77-7.95-1.41-3-1.41-3,7.6-4.39,5.22.82,5.21.81,1.42,3,1.41,3-7.61,4.4-5.21-.82Zm-13.76-7.94-1.41-3-1.41-3,7.6-4.4,5.22.82,5.21.82,1.41,3,1.42,3L140.5,151l-5.21-.82Zm-13.76-8-1.42-3-1.41-3,7.61-4.39,5.21.81,5.22.82,1.41,3,1.41,3-7.6,4.39-5.22-.81Zm20.86-19.7,7.61-4.39,5.21.82,5.22.81,1.41,3,1.41,3-7.6,4.39-5.22-.81-5.21-.82-1.42-3ZM160.86,108l7.61-4.39,5.21.82,5.22.81,1.41,3,1.41,3-7.6,4.39-5.22-.82-5.21-.81-1.41-3Zm23.69-13.68L192.16,90l5.21.82,5.22.82,1.41,3,1.42,3L197.81,102l-5.22-.82-5.21-.81-1.41-3Zm23.7-13.67,7.6-4.39,5.22.81,5.21.82,1.41,3,1.42,3-7.61,4.39-5.21-.82-5.22-.81-1.41-3ZM231.94,67l7.6-4.39,5.22.81,5.21.82,1.42,3,1.41,3-7.61,4.39L240,73.84,234.76,73l-1.41-3Zm31.8,5.19,1.41,3,1.41,3L259,82.6l-5.22-.82L248.53,81l-1.42-3-1.41-3,7.61-4.4,5.21.82Zm13.76,7.94,1.41,3,1.42,3-7.61,4.4-5.22-.82-5.21-.82-1.41-3-1.42-3,7.61-4.39,5.21.82Zm13.76,8,1.42,3,1.41,3-7.61,4.39-5.21-.81-5.22-.82-1.41-3-1.41-3,7.6-4.39,5.22.81ZM305,96l1.41,3,1.41,3-7.6,4.39-5.22-.82-5.21-.81-1.42-3-1.41-3,7.61-4.4,5.21.82ZM318.79,104l1.41,3,1.42,3-7.61,4.4-5.21-.82-5.22-.82-1.41-3-1.41-3,7.6-4.39,5.22.82Zm13.77,8,1.41,3,1.41,3-7.6,4.39-5.22-.81-5.21-.82-1.42-3-1.41-3,7.61-4.39,5.21.81Zm13.76,8,1.41,3,1.42,3-7.61,4.39-5.22-.82-5.21-.81-1.41-3-1.42-3,7.61-4.4,5.21.82Zm13.76,7.94,1.42,3,1.41,3-7.61,4.39-5.21-.81-5.22-.82-1.41-3-1.41-3,7.6-4.39,5.22.82Zm13.77,7.95,1.41,3,1.41,3-7.6,4.39-5.22-.81-5.21-.82-1.42-3-1.41-3,7.61-4.39,5.21.81Zm13.76,8,1.41,3,1.42,3-7.61,4.39-5.21-.82-5.22-.81-1.41-3-1.41-3,7.6-4.39,5.22.82Zm13.77,7.94,1.41,3,1.41,3-7.6,4.39-5.22-.81-5.21-.82-1.42-3-1.41-3L391,150l5.21.82Zm13.76,7.95,1.41,3,1.41,3-7.6,4.39-5.22-.81-5.21-.82-1.41-3-1.42-3,7.61-4.39,5.21.81Zm13.76,8,1.42,3,1.41,3L424.12,178l-5.21-.82-5.22-.81-1.41-3-1.41-3,7.6-4.39,5.22.82Zm13.77,7.94,1.41,3,1.41,3-7.6,4.39-5.22-.81-5.21-.82-1.42-3-1.41-3,7.61-4.39,5.21.82Zm13.76,7.95,1.41,3,1.42,3-7.61,4.39-5.21-.81-5.22-.82-1.41-3-1.41-3,7.6-4.39,5.22.81Zm13.77,7.95,1.41,3,1.41,3-7.6,4.39L460.2,201l-5.21-.81-1.42-3-1.41-3,7.61-4.39,5.21.82ZM484,199.33l1.41,3,1.41,3-7.6,4.39-5.22-.81-5.21-.82-1.41-3-1.42-3,7.61-4.39,5.21.82Zm13.76,7.95,1.42,3,1.41,3-7.61,4.39-5.21-.81-5.22-.82-1.41-3-1.41-3,7.6-4.39,5.22.81Zm13.77,7.95,1.41,3,1.41,3-7.6,4.39-5.22-.82-5.21-.81-1.42-3-1.41-3,7.61-4.39,5.21.82Zm13.76,7.94,1.41,3,1.42,3-7.61,4.39-5.21-.81L510,232l-1.41-3-1.41-3,7.6-4.39,5.22.82Zm13.77,8,1.41,3,1.41,3-7.6,4.39-5.22-.81-5.22-.82-1.41-3-1.41-3,7.6-4.39,5.22.81Zm13.76,7.94,1.41,3,1.41,3-7.6,4.39-5.22-.82-5.21-.81-1.41-3-1.42-3,7.61-4.39,5.21.82ZM566.54,247l1.42,3,1.41,3-7.61,4.39-5.21-.81-5.22-.82-1.41-3-1.41-3,7.6-4.39,5.22.82Zm-2.14,16.84-7.6,4.39-5.22-.82-5.21-.81-1.41-3-1.42-3,7.61-4.39,5.21.82,5.22.81,1.41,3Zm-23.69,13.67-7.6,4.39-5.22-.81-5.21-.82-1.41-3-1.42-3,7.61-4.39,5.21.82,5.22.81,1.41,3ZM517,291.2l-7.6,4.39-5.22-.81L499,294l-1.42-3-1.41-3,7.61-4.39,5.21.81,5.22.82,1.41,3Zm-23.69,13.68-7.6,4.39-5.22-.81-5.21-.82-1.42-3-1.41-3,7.61-4.39,5.21.81,5.22.82,1.41,3Zm-23.69,13.68L462,323l-5.22-.82-5.22-.81-1.41-3-1.41-3,7.6-4.4,5.22.82,5.22.82,1.41,3Zm-31.8-5.19-1.41-3-1.41-3,7.6-4.39,5.22.81,5.21.82,1.41,3,1.42,3L448.27,315l-5.21-.81Zm-13.76-7.95-1.42-3-1.41-3,7.61-4.39,5.21.82,5.22.81,1.41,3,1.41,3-7.6,4.4-5.22-.82Zm-13.77-7.94-1.41-3-1.41-3,7.6-4.4,5.22.82,5.21.82,1.42,3,1.41,3-7.61,4.39-5.21-.82Zm-13.76-8-1.41-3-1.42-3,7.61-4.39,5.21.81,5.22.82,1.41,3,1.41,3-7.6,4.39-5.22-.81Zm-13.77-7.95-1.41-3-1.41-3,7.6-4.39,5.22.82,5.22.81,1.41,3,1.41,3-7.6,4.4L388,282.4ZM369,273.64l-1.41-3-1.41-3,7.6-4.39L379,264l5.21.82,1.41,3,1.42,3-7.61,4.39-5.21-.82Zm-13.76-7.95-1.42-3-1.41-3,7.61-4.39,5.21.81,5.22.82,1.41,3,1.41,3-7.6,4.39-5.22-.81Zm-13.77-7.95-1.41-3-1.41-3,7.6-4.39,5.22.82,5.21.81,1.42,3,1.41,3-7.61,4.39-5.21-.82Zm-13.76-7.94-1.41-3-1.42-3,7.61-4.39,5.21.81,5.22.82,1.41,3,1.41,3-7.6,4.39-5.22-.82Zm-13.76-8-1.42-3-1.41-3,7.61-4.39,5.21.81,5.22.82,1.41,3,1.41,3-7.6,4.39-5.22-.81ZM300.2,233.9l-1.41-3-1.41-3,7.6-4.39,5.22.82,5.21.81,1.41,3,1.42,3-7.61,4.39-5.21-.82ZM286.44,226,285,223l-1.41-3,7.61-4.39,5.21.81,5.22.82,1.41,3,1.41,3-7.6,4.39-5.22-.82Zm-13.77-8-1.41-3-1.41-3,7.6-4.39,5.22.81,5.21.82,1.42,3,1.41,3-7.61,4.39-5.21-.81Zm-13.76-7.95-1.41-3-1.42-3,7.61-4.39,5.21.82,5.22.81,1.41,3,1.42,3-7.61,4.39-5.22-.82Zm-13.76-7.94-1.42-3-1.41-3,7.61-4.39,5.21.81,5.22.82,1.41,3,1.41,3-7.6,4.39-5.22-.82Zm-13.77-8-1.41-3-1.41-3,7.6-4.39,5.22.81,5.21.82,1.41,3,1.42,3-7.61,4.39L236.6,195Zm-13.76-7.94-1.41-3-1.42-3,7.61-4.39,5.21.82,5.22.81,1.41,3,1.41,3-7.6,4.39-5.22-.82Zm-13.77-7.95-1.41-3-1.41-3,7.6-4.39,5.22.81,5.21.82,1.42,3,1.41,3-7.61,4.39-5.21-.82Zm-13.76-7.95-1.41-3-1.42-3,7.61-4.39,5.21.81,5.22.82,1.41,3,1.42,3L200.52,172l-5.22-.81Zm-13.76-7.94-1.42-3-1.41-3,7.61-4.39,5.21.82,5.22.81,1.41,3,1.41,3-7.6,4.39-5.22-.82Zm-13.77-7.95-1.41-3-1.41-3,7.6-4.39,5.22.81,5.21.82,1.41,3,1.42,3L173,156.07l-5.21-.82Zm-13.76-7.95-1.41-3-1.42-3,7.61-4.39,5.21.81,5.22.82,1.41,3,1.41,3-7.6,4.39-5.22-.81ZM135,138.55l-1.41-3-1.41-3,7.6-4.39L145,129l5.21.81,1.42,3,1.41,3-7.61,4.39-5.21-.82Zm20.87-19.7,7.6-4.4,5.22.82,5.22.82,1.41,3,1.41,3-7.6,4.39-5.22-.82-5.21-.81-1.42-3Zm23.69-13.68,7.61-4.39,5.21.81,5.22.82,1.41,3,1.41,3-7.6,4.39-5.22-.81-5.21-.82-1.42-3Zm23.69-13.68,7.61-4.39,5.21.81,5.22.82,1.41,3,1.41,3-7.6,4.39-5.22-.81-5.21-.82-1.42-3ZM227,77.81l7.61-4.39,5.21.82,5.22.81,1.41,3,1.41,3-7.6,4.39L235,84.65l-5.21-.82-1.41-3ZM258.77,83l1.42,3,1.41,3L254,93.41l-5.21-.81-5.22-.82-1.41-3-1.41-3,7.6-4.39,5.22.81Zm13.77,7.94L274,94l1.41,3-7.6,4.39-5.22-.82-5.21-.81-1.42-3-1.41-3,7.61-4.39,5.21.82Zm13.76,8,1.41,3,1.42,3-7.61,4.39-5.21-.81-5.22-.82-1.41-3-1.41-3,7.6-4.39,5.22.82Zm13.76,8,1.42,3,1.41,3-7.61,4.39-5.21-.81-5.22-.82-1.41-3-1.41-3,7.6-4.39,5.22.81Zm13.77,7.94,1.41,3,1.41,3-7.6,4.39-5.22-.82-5.21-.81-1.41-3-1.42-3,7.61-4.39,5.21.82Zm13.76,8,1.42,3,1.41,3-7.61,4.39-5.21-.81-5.22-.82-1.41-3-1.41-3,7.6-4.39,5.22.82Zm13.77,8,1.41,3,1.41,3-7.6,4.39-5.22-.81-5.21-.82-1.42-3-1.41-3,7.61-4.39,5.21.81Zm13.76,7.94,1.41,3,1.42,3L350.34,149l-5.21-.82-5.22-.81-1.41-3-1.42-3,7.61-4.39,5.22.82Zm13.76,7.95,1.42,3,1.41,3L364.1,157l-5.21-.81-5.22-.82-1.41-3-1.41-3,7.6-4.39,5.22.82Zm13.77,8,1.41,3,1.41,3-7.6,4.39-5.22-.81-5.21-.82-1.42-3-1.41-3,7.61-4.39,5.21.81Zm13.76,7.94,1.42,3,1.41,3-7.61,4.39-5.21-.82-5.22-.81-1.41-3-1.41-3,7.6-4.39,5.22.82Zm13.77,7.95,1.41,3,1.41,3-7.6,4.39-5.22-.81-5.21-.82-1.42-3-1.41-3,7.61-4.39,5.21.82Zm13.76,8,1.41,3,1.42,3-7.61,4.39-5.22-.82-5.21-.81-1.41-3-1.42-3,7.61-4.39,5.22.81Zm13.76,7.94,1.42,3,1.41,3-7.61,4.39-5.21-.82-5.22-.81-1.41-3-1.41-3,7.6-4.39,5.22.82Zm13.77,7.95,1.41,3,1.41,3-7.6,4.39-5.22-.81-5.21-.82-1.42-3-1.41-3,7.61-4.39,5.21.81Zm13.76,7.95,1.42,3,1.41,3-7.61,4.39-5.21-.82L450,211l-1.41-3-1.41-3,7.6-4.39,5.22.81ZM479,210.14l1.41,3,1.41,3-7.6,4.39-5.22-.82-5.21-.81-1.42-3-1.41-3,7.61-4.39,5.21.82Zm13.76,8,1.41,3,1.42,3L488,228.5l-5.22-.81-5.21-.82-1.41-3-1.42-3,7.61-4.39,5.21.81ZM506.52,226l1.42,3,1.41,3-7.61,4.39-5.21-.82-5.22-.81-1.41-3-1.41-3,7.6-4.39,5.22.81ZM520.29,234l1.41,3,1.41,3-7.6,4.39-5.22-.82-5.21-.81-1.42-3-1.41-3,7.61-4.39,5.21.82Zm13.76,8,1.41,3,1.42,3-7.61,4.39-5.21-.81-5.22-.82-1.41-3-1.41-3,7.6-4.39,5.22.81Zm13.77,7.95,1.41,3,1.41,3-7.6,4.39-5.22-.82-5.22-.81-1.41-3-1.41-3,7.61-4.39,5.21.81Zm-2.14,16.83-7.61,4.39-5.21-.81-5.22-.82-1.41-3-1.41-3,7.6-4.39,5.22.81,5.21.82,1.41,3ZM522,280.39l-7.61,4.39-5.21-.82-5.22-.81-1.41-3-1.42-3,7.61-4.39,5.22.81,5.21.82,1.41,3ZM498.3,294.07l-7.61,4.39-5.22-.82-5.21-.81-1.41-3-1.42-3,7.61-4.4,5.21.82,5.22.82,1.41,3Zm-23.7,13.68-7.6,4.39-5.22-.82-5.21-.81-1.41-3-1.42-3,7.61-4.39,5.21.82,5.22.81,1.41,3Zm-31.8-5.19-1.41-3-1.41-3,7.6-4.39,5.22.81,5.22.82,1.41,3,1.41,3-7.61,4.39-5.21-.82ZM429,294.61l-1.41-3-1.42-3,7.61-4.39L439,285l5.21.82,1.41,3,1.42,3-7.61,4.39-5.21-.81Zm-13.76-7.94-1.42-3-1.41-3,7.61-4.39,5.21.82,5.22.81,1.41,3,1.41,3-7.6,4.39-5.22-.82Zm-13.77-7.95-1.41-3-1.41-3,7.6-4.39,5.22.81,5.21.82,1.42,3,1.41,3-7.61,4.39-5.21-.82Zm-13.76-8-1.41-3-1.42-3,7.61-4.39,5.21.81L403,262l1.41,3,1.41,3-7.6,4.39-5.22-.81ZM374,262.83l-1.41-3-1.41-3,7.6-4.39,5.22.82,5.22.81,1.41,3,1.41,3-7.61,4.39-5.21-.82Zm-13.76-7.95-1.41-3-1.41-3,7.6-4.39,5.22.81,5.21.82,1.41,3,1.42,3-7.61,4.39-5.21-.82Zm-13.76-7.95-1.42-3-1.41-3,7.61-4.39,5.21.81,5.22.82,1.41,3,1.41,3-7.6,4.39-5.22-.81ZM332.69,239l-1.41-3-1.41-3,7.6-4.39,5.22.82,5.21.81,1.42,3,1.41,3-7.61,4.39-5.21-.82Zm-13.76-8-1.41-3-1.42-3,7.61-4.39,5.21.81,5.22.82,1.41,3,1.41,3-7.6,4.39-5.22-.82Zm-13.77-7.95-1.41-3-1.41-3,7.61-4.39,5.21.82,5.22.81,1.41,3,1.41,3-7.6,4.39-5.22-.81Zm-13.76-7.94-1.41-3-1.41-3,7.6-4.39,5.22.82,5.21.81,1.41,3,1.42,3-7.61,4.39-5.21-.82Zm-13.76-8-1.42-3-1.41-3,7.61-4.39,5.21.81,5.22.82,1.41,3,1.41,3-7.6,4.39-5.22-.81Zm-13.77-7.95-1.41-3-1.41-3,7.6-4.39,5.22.82,5.21.81,1.42,3,1.41,3-7.61,4.39-5.21-.81Zm-13.76-7.94-1.41-3-1.42-3,7.61-4.39,5.21.82,5.22.81,1.41,3,1.42,3-7.61,4.39-5.22-.82Zm-13.77-7.95-1.41-3-1.41-3,7.61-4.39,5.21.81,5.22.82,1.41,3,1.41,3-7.6,4.39-5.22-.81Zm-13.76-8-1.41-3-1.41-3,7.6-4.39,5.22.82,5.21.81,1.41,3,1.42,3L233,177l-5.21-.81Zm-13.76-7.94-1.42-3-1.41-3,7.61-4.39,5.21.82,5.22.81,1.41,3,1.41,3-7.6,4.39-5.22-.82Zm-13.77-7.95-1.41-3-1.41-3,7.6-4.39,5.22.81,5.21.82,1.42,3,1.41,3-7.61,4.39-5.21-.81Zm-13.76-8-1.41-3-1.42-3,7.61-4.39,5.21.82,5.22.81,1.41,3,1.42,3-7.61,4.39-5.22-.81Zm-13.76-7.94-1.42-3-1.41-3,7.61-4.39,5.21.82,5.22.81,1.41,3,1.41,3-7.6,4.39-5.22-.82Zm-13.77-7.95-1.41-3-1.41-3,7.6-4.39,5.22.81,5.21.82,1.41,3,1.42,3-7.61,4.39L159,136.5ZM174.63,116l7.6-4.39,5.22.81,5.21.82,1.42,3,1.41,3-7.61,4.39-5.21-.81-5.22-.82L176,119Zm23.69-13.68,7.6-4.39,5.22.82,5.21.81,1.42,3,1.41,3L211.57,110l-5.21-.81-5.22-.82-1.41-3ZM222,88.62l7.6-4.39,5.22.82,5.22.81,1.41,3,1.41,3-7.6,4.39-5.22-.82-5.22-.81-1.41-3Zm31.8,5.19,1.41,3,1.41,3-7.6,4.39-5.22-.81-5.21-.82-1.41-3-1.42-3,7.61-4.39,5.21.81Zm13.76,8,1.42,3,1.41,3-7.61,4.39-5.21-.82-5.22-.81-1.41-3-1.41-3,7.6-4.39,5.22.81Zm13.77,7.94,1.41,3,1.41,3-7.6,4.39-5.22-.82-5.21-.81-1.42-3-1.41-3,7.61-4.39,5.21.82Zm13.76,8,1.41,3,1.42,3-7.61,4.39-5.21-.81-5.22-.82-1.41-3-1.41-3,7.6-4.39,5.22.81Zm13.77,7.95,1.41,3,1.41,3-7.6,4.39-5.22-.82-5.22-.81-1.41-3-1.41-3,7.6-4.39,5.22.81Zm13.76,7.94,1.41,3,1.41,3-7.6,4.39-5.22-.82-5.21-.81-1.41-3-1.42-3,7.61-4.39,5.21.82Zm13.76,8,1.42,3,1.41,3-7.61,4.39-5.21-.81-5.22-.82-1.41-3-1.41-3,7.6-4.39,5.22.81Zm13.77,7.95,1.41,3,1.41,3-7.6,4.39-5.22-.82-5.21-.81-1.42-3-1.41-3,7.61-4.39,5.21.81Zm13.76,7.94,1.41,3,1.42,3-7.61,4.39-5.21-.82-5.22-.81-1.41-3-1.42-3,7.61-4.39,5.22.82Zm13.76,8,1.42,3,1.41,3-7.61,4.39-5.21-.81-5.22-.82-1.41-3-1.41-3,7.6-4.39,5.22.81Zm13.77,7.95,1.41,3,1.41,3-7.6,4.39-5.22-.82-5.21-.81-1.41-3-1.42-3,7.61-4.39,5.21.81Zm13.76,7.94,1.42,3,1.41,3-7.61,4.39-5.21-.82L390,190l-1.41-3-1.41-3,7.6-4.39,5.22.82ZM419,189.17l1.41,3,1.41,3-7.6,4.39-5.22-.81-5.21-.82-1.42-3-1.41-3,7.61-4.39,5.21.81Zm13.76,8,1.41,3,1.42,3L428,207.53l-5.22-.82-5.21-.81-1.41-3-1.42-3,7.61-4.39,5.22.81Zm13.76,7.94,1.42,3,1.41,3-7.61,4.39-5.21-.82-5.22-.81-1.41-3-1.41-3,7.6-4.39,5.22.82ZM460.27,213l1.41,3,1.41,3-7.6,4.39-5.22-.81-5.21-.82-1.41-3-1.42-3,7.61-4.39,5.21.81ZM474,221l1.42,3,1.41,3-7.61,4.39-5.21-.82-5.22-.81-1.41-3-1.41-3,7.6-4.39,5.22.81Zm13.77,7.94,1.41,3,1.41,3-7.6,4.39-5.22-.82-5.21-.81-1.42-3-1.41-3,7.61-4.39,5.21.82Zm13.76,7.95,1.41,3,1.42,3-7.61,4.39-5.22-.81-5.21-.82-1.41-3-1.42-3,7.61-4.39,5.22.81Zm13.76,8,1.42,3,1.41,3-7.61,4.39-5.21-.82-5.22-.81-1.41-3-1.41-3,7.6-4.39,5.22.81Zm13.77,7.94,1.41,3,1.41,3-7.6,4.4-5.22-.82-5.21-.82-1.42-3-1.41-3,7.61-4.39,5.21.82ZM527,269.58,519.34,274l-5.21-.82-5.22-.81-1.41-3-1.41-3,7.6-4.39,5.22.82,5.21.82,1.42,3Zm-23.69,13.68-7.61,4.39-5.21-.82-5.22-.81-1.41-3-1.41-3,7.6-4.39,5.22.82,5.21.81,1.42,3Zm-23.69,13.67L472,301.32l-5.21-.81-5.22-.82-1.41-3-1.41-3,7.6-4.39,5.22.82,5.21.81,1.41,3Zm-31.8-5.18-1.41-3-1.42-3,7.61-4.39,5.21.82L463,283l1.41,3,1.41,3-7.6,4.39-5.22-.82ZM434,283.8l-1.41-3-1.41-3,7.6-4.39,5.22.81,5.21.82,1.42,3,1.41,3-7.61,4.39-5.21-.81Zm-13.76-7.95-1.41-3-1.42-3,7.61-4.39,5.22.82,5.21.81,1.41,3,1.42,3-7.61,4.39-5.21-.81Zm-13.76-7.94-1.42-3-1.41-3,7.61-4.39,5.21.82,5.22.81,1.41,3,1.41,3-7.6,4.39-5.22-.82Zm-13.77-8-1.41-3-1.41-3,7.6-4.39,5.22.81,5.21.82,1.42,3,1.41,3-7.61,4.39-5.21-.81ZM379,252l-1.41-3-1.42-3,7.61-4.39,5.21.82,5.22.81,1.41,3,1.41,3-7.6,4.39-5.22-.81Zm-13.77-7.94-1.41-3-1.41-3,7.6-4.39,5.22.82,5.21.81,1.42,3,1.41,3-7.61,4.39-5.21-.82Zm-13.76-7.95-1.41-3-1.41-3,7.6-4.39,5.22.81,5.21.82,1.41,3,1.42,3-7.61,4.39-5.21-.81Zm-13.76-8-1.42-3-1.41-3,7.61-4.39,5.21.82,5.22.81,1.41,3,1.41,3-7.6,4.39-5.22-.81Zm-13.77-7.94-1.41-3-1.41-3,7.6-4.39,5.22.82,5.21.81,1.42,3,1.41,3-7.61,4.39-5.21-.82Zm-13.76-7.95-1.41-3-1.42-3,7.61-4.39,5.21.81,5.22.82,1.41,3,1.41,3-7.6,4.39-5.22-.81Zm-13.77-7.95-1.41-3-1.41-3,7.6-4.39,5.22.82,5.22.81,1.41,3,1.41,3L306.8,206l-5.22-.81Zm-13.76-7.94-1.41-3-1.41-3,7.6-4.39,5.22.82,5.21.82,1.41,3,1.42,3L293,198l-5.21-.82Zm-13.76-7.95-1.42-3-1.41-3,7.61-4.39,5.21.81,5.22.82,1.41,3,1.41,3-7.6,4.39-5.22-.81Zm-13.77-7.95-1.41-3-1.41-3,7.6-4.39,5.22.82,5.21.81,1.42,3,1.41,3-7.61,4.39-5.21-.81Zm-13.76-7.94-1.41-3-1.42-3,7.61-4.4,5.21.82,5.22.82,1.41,3,1.41,3-7.6,4.39-5.22-.82Zm-13.77-8-1.41-3-1.41-3,7.6-4.39,5.22.81,5.22.82,1.41,3,1.41,3-7.6,4.39-5.22-.81Zm-13.76-7.95-1.41-3-1.41-3,7.6-4.39,5.22.82,5.21.81,1.41,3,1.42,3-7.61,4.39-5.21-.81ZM200,148.71l-1.42-3-1.41-3,7.61-4.4,5.21.82,5.22.82,1.41,3,1.41,3-7.6,4.39-5.22-.82Zm-13.77-8-1.41-3-1.41-3,7.6-4.39,5.22.81,5.21.82,1.42,3,1.41,3-7.61,4.39-5.21-.81Zm-13.76-7.95-1.41-3-1.42-3,7.61-4.39,5.21.82,5.22.81,1.41,3,1.41,3-7.6,4.4-5.22-.82Zm20.87-19.7,7.6-4.39,5.22.82,5.21.81,1.41,3,1.42,3-7.61,4.39-5.22-.82-5.21-.81-1.41-3Zm23.69-13.67,7.6-4.39,5.22.81,5.21.82,1.41,3,1.42,3-7.61,4.39-5.21-.82-5.22-.81-1.41-3Zm31.8,5.18,1.41,3,1.41,3-7.6,4.4-5.22-.82-5.21-.82-1.42-3-1.41-3,7.6-4.39,5.22.82Zm13.76,7.95,1.41,3,1.41,3-7.6,4.39-5.22-.81-5.21-.82-1.41-3-1.42-3,7.61-4.39,5.21.81Zm13.76,8,1.42,3,1.41,3-7.61,4.39-5.21-.82-5.22-.81-1.41-3-1.41-3,7.6-4.4,5.22.82Zm13.77,7.94,1.41,3,1.41,3-7.6,4.4-5.22-.82-5.21-.82-1.42-3-1.41-3,7.61-4.39,5.21.82Zm13.76,7.95,1.41,3,1.42,3-7.61,4.39-5.21-.81-5.22-.82-1.41-3-1.41-3,7.6-4.39,5.22.81Zm13.77,8,1.41,3,1.41,3-7.6,4.39-5.22-.82-5.22-.81-1.41-3-1.41-3,7.6-4.4,5.22.82Zm13.76,7.94,1.41,3,1.41,3-7.6,4.4-5.22-.82-5.21-.82-1.41-3-1.42-3,7.61-4.39,5.21.82Zm13.76,7.95,1.42,3,1.41,3-7.61,4.39-5.21-.81L330,169l-1.41-3-1.41-3,7.6-4.39,5.22.81ZM359,168.2l1.41,3,1.41,3-7.6,4.39-5.22-.82-5.21-.81-1.42-3-1.41-3,7.61-4.4,5.21.82Zm13.76,7.94,1.41,3,1.42,3-7.61,4.4-5.21-.82-5.22-.82-1.41-3-1.41-3,7.6-4.39,5.22.82Zm13.76,8,1.42,3,1.41,3-7.6,4.39-5.22-.81-5.22-.82-1.41-3-1.41-3,7.6-4.39,5.22.81ZM400.25,192l1.41,3,1.41,3-7.6,4.39-5.22-.82-5.21-.81-1.41-3-1.42-3,7.61-4.4,5.21.82ZM414,200l1.42,3,1.41,3-7.61,4.4-5.21-.82-5.22-.82-1.41-3-1.41-3,7.6-4.39,5.22.82Zm13.77,8,1.41,3,1.41,3-7.6,4.39-5.22-.81-5.21-.82-1.42-3-1.41-3,7.61-4.39,5.21.81Zm13.76,7.95,1.41,3,1.42,3-7.61,4.39-5.21-.82-5.22-.81-1.41-3-1.41-3,7.6-4.4,5.22.82Zm13.76,7.94,1.42,3,1.41,3-7.61,4.39-5.21-.81-5.22-.82-1.41-3-1.41-3,7.6-4.39,5.22.82Zm13.77,8,1.41,3,1.41,3-7.6,4.39-5.22-.81-5.21-.82-1.41-3-1.42-3,7.61-4.39,5.21.81Zm13.76,7.95,1.42,3,1.41,3-7.61,4.39-5.21-.82-5.22-.81-1.41-3-1.41-3,7.6-4.4,5.22.82Zm13.77,7.94,1.41,3,1.41,3-7.6,4.39-5.22-.81-5.21-.82-1.42-3-1.41-3,7.61-4.39,5.21.82Zm13.76,8,1.41,3,1.42,3L505.58,266l-5.21-.81-5.22-.82-1.41-3-1.42-3,7.61-4.39,5.22.81Zm-2.14,16.83-7.6,4.39L495.4,276l-5.21-.82-1.42-3-1.41-3,7.61-4.39,5.21.82,5.22.81,1.41,3Zm-23.69,13.68-7.6,4.39-5.22-.81-5.21-.82-1.42-3-1.41-3,7.61-4.39,5.21.81,5.22.82,1.41,3Zm-31.8-5.19-1.41-3-1.41-3,7.6-4.39,5.22.82,5.21.81,1.41,3,1.42,3-7.61,4.4-5.21-.82ZM439,273l-1.42-3-1.41-3,7.61-4.4,5.21.82,5.22.82,1.41,3,1.41,3-7.6,4.39-5.22-.82ZM425.2,265l-1.41-3-1.41-3,7.6-4.39,5.22.81,5.21.82,1.42,3,1.41,3-7.61,4.39-5.21-.81Zm-13.76-8-1.41-3-1.42-3,7.61-4.39,5.21.82,5.22.81,1.41,3,1.42,3-7.61,4.4-5.22-.82Zm-13.76-7.94-1.42-3-1.41-3,7.61-4.4,5.21.82,5.22.82,1.41,3,1.41,3-7.6,4.39-5.22-.82Zm-13.77-8-1.41-3-1.41-3,7.6-4.39,5.22.81,5.21.82,1.42,3,1.41,3-7.61,4.39-5.21-.81Zm-13.76-7.95-1.42-3-1.41-3,7.61-4.39,5.21.82,5.22.81,1.41,3,1.41,3-7.6,4.4-5.22-.82Zm-13.77-7.94-1.41-3-1.41-3,7.6-4.4,5.22.82,5.21.82,1.42,3,1.41,3-7.61,4.39-5.21-.82Zm-13.76-7.95-1.41-3-1.42-3L347.4,207l5.22.81,5.21.82,1.41,3,1.42,3L353.05,219l-5.21-.81Zm-13.76-8-1.42-3-1.41-3,7.61-4.39,5.21.82,5.22.81,1.41,3,1.41,3-7.6,4.4-5.22-.82Zm-13.77-7.94-1.41-3-1.41-3,7.6-4.4,5.22.82,5.21.82,1.42,3,1.41,3-7.61,4.39-5.21-.82Zm-13.76-7.95-1.41-3-1.42-3,7.61-4.39,5.21.81,5.22.82,1.41,3,1.41,3-7.6,4.39-5.22-.81Zm-13.77-8-1.41-3-1.41-3,7.6-4.39,5.22.82,5.21.81,1.42,3,1.41,3-7.61,4.4-5.21-.82Zm-13.76-7.94-1.41-3-1.42-3,7.61-4.39,5.22.81,5.21.82,1.41,3,1.42,3-7.61,4.39-5.21-.82ZM260,169.68l-1.42-3-1.41-3,7.61-4.39,5.21.81,5.22.82,1.41,3,1.41,3-7.6,4.39-5.22-.81Zm-13.77-8-1.41-3-1.41-3,7.6-4.39,5.22.82,5.21.81,1.42,3,1.41,3-7.61,4.39-5.21-.82Zm-13.76-7.94-1.41-3-1.42-3,7.61-4.39,5.21.81,5.22.82,1.41,3,1.41,3-7.6,4.39-5.22-.82Zm-13.77-7.95-1.41-3-1.41-3,7.6-4.39,5.22.81,5.21.82,1.42,3,1.41,3-7.61,4.39-5.21-.81ZM205,137.9l-1.41-3-1.41-3,7.6-4.39,5.22.82,5.21.81,1.41,3,1.42,3-7.61,4.39-5.21-.82Zm-13.76-8-1.42-3-1.41-3,7.61-4.39,5.21.81,5.22.82,1.41,3,1.41,3-7.6,4.39-5.22-.82Zm20.86-19.7,7.61-4.39,5.21.81,5.22.82,1.41,3,1.41,3-7.6,4.39-5.22-.81-5.21-.82-1.42-3Zm31.8,5.19,1.41,3,1.42,3-7.61,4.39-5.21-.82-5.22-.81-1.41-3-1.41-3,7.6-4.39,5.22.82Zm13.77,7.94,1.41,3,1.41,3-7.6,4.39-5.22-.81-5.21-.82-1.42-3-1.41-3,7.61-4.39,5.21.82Zm13.76,8,1.41,3,1.42,3-7.61,4.39-5.22-.81-5.21-.82-1.41-3-1.42-3L261,129.7l5.21.81Zm13.76,7.95,1.42,3,1.41,3-7.61,4.39-5.21-.82-5.22-.81-1.41-3-1.41-3,7.6-4.39,5.22.82Zm13.77,7.94,1.41,3,1.41,3-7.6,4.39-5.22-.81-5.21-.82-1.42-3-1.41-3,7.61-4.39,5.21.82Zm13.76,7.95,1.41,3,1.42,3-7.61,4.39-5.21-.81-5.22-.82-1.41-3-1.41-3,7.6-4.39,5.22.81Zm13.77,7.94,1.41,3,1.41,3-7.6,4.39-5.22-.82-5.21-.81-1.42-3-1.41-3,7.61-4.39,5.21.82Zm13.76,7.95,1.41,3,1.41,3-7.6,4.39-5.22-.81-5.21-.82-1.41-3-1.42-3,7.61-4.39,5.21.82ZM354,179l1.42,3,1.41,3-7.61,4.39-5.21-.81-5.22-.82-1.41-3-1.41-3,7.6-4.39,5.22.81ZM367.76,187l1.41,3,1.41,3-7.6,4.39-5.22-.82-5.21-.81-1.42-3-1.41-3,7.61-4.39,5.21.82Zm13.76,8,1.41,3,1.42,3-7.61,4.39-5.21-.81-5.22-.82-1.41-3-1.41-3,7.6-4.39,5.22.82Zm13.77,7.95,1.41,3,1.41,3-7.6,4.39-5.22-.81-5.21-.82-1.42-3-1.41-3,7.61-4.39,5.21.81Zm13.76,7.94,1.41,3,1.41,3-7.6,4.39-5.22-.82-5.21-.81-1.41-3-1.42-3,7.61-4.39,5.21.82Zm13.76,8,1.42,3,1.41,3L418,229.15l-5.21-.81-5.22-.82-1.41-3-1.41-3,7.6-4.39,5.22.82Zm13.77,7.95,1.41,3,1.41,3-7.6,4.39-5.22-.81-5.21-.82-1.42-3-1.41-3,7.61-4.39,5.21.81Zm13.76,7.94,1.41,3,1.42,3-7.61,4.39-5.21-.82-5.22-.81-1.41-3-1.41-3,7.6-4.39,5.22.82Zm13.77,8,1.41,3,1.41,3-7.6,4.39-5.22-.81-5.22-.82-1.41-3-1.41-3,7.6-4.39,5.22.82Zm13.76,7.95,1.41,3,1.41,3-7.6,4.39-5.22-.81-5.21-.82-1.41-3-1.42-3,7.61-4.39,5.21.81Zm13.76,7.94,1.42,3,1.41,3-7.61,4.39-5.21-.82-5.22-.81-1.41-3-1.41-3,7.6-4.39,5.22.82Zm-2.13,16.84-7.61,4.39-5.22-.82-5.21-.81-1.41-3-1.42-3,7.61-4.39,5.21.81,5.22.82,1.41,3Zm-31.81-5.19-1.41-3-1.41-3,7.6-4.39,5.22.81,5.22.82,1.41,3,1.41,3-7.6,4.39-5.22-.81Zm-13.76-7.94-1.41-3-1.41-3,7.6-4.39,5.22.82,5.21.81,1.41,3,1.42,3-7.61,4.39-5.21-.82Zm-13.76-8-1.42-3-1.41-3,7.61-4.39,5.21.81,5.22.82,1.41,3,1.41,3-7.6,4.39-5.22-.82Zm-13.77-7.95-1.41-3-1.41-3,7.6-4.39,5.22.81,5.21.82,1.42,3,1.41,3-7.61,4.39-5.21-.81Zm-13.76-7.94-1.41-3-1.42-3,7.61-4.39,5.21.82,5.22.81,1.41,3,1.42,3L413.07,240l-5.22-.82Zm-13.76-8-1.42-3-1.41-3,7.61-4.39,5.21.81,5.22.82,1.41,3,1.41,3-7.6,4.39-5.22-.82Zm-13.77-7.95-1.41-3-1.41-3,7.6-4.39,5.22.81,5.21.82,1.41,3,1.42,3-7.61,4.39-5.21-.81Zm-13.76-7.94-1.42-3-1.41-3,7.61-4.39,5.21.82,5.22.81,1.41,3,1.41,3-7.6,4.39-5.22-.82Zm-13.77-7.95-1.41-3-1.41-3,7.6-4.39,5.22.81,5.21.82,1.42,3,1.41,3L358,208.18l-5.21-.82Zm-13.76-8-1.41-3-1.42-3,7.61-4.39,5.21.81,5.22.82,1.41,3,1.42,3-7.61,4.39-5.22-.81Zm-13.76-7.94-1.42-3-1.41-3,7.61-4.39,5.21.82,5.22.81,1.41,3,1.41,3-7.6,4.39-5.22-.82Zm-13.77-7.95-1.41-3-1.41-3,7.6-4.39,5.22.81,5.21.82,1.41,3,1.42,3-7.61,4.39-5.21-.82Zm-13.76-8-1.41-3-1.42-3,7.61-4.39,5.21.81,5.22.82,1.41,3,1.41,3-7.6,4.39-5.22-.81Zm-13.77-7.94-1.41-3-1.41-3,7.6-4.39,5.22.82L294,158l1.42,3,1.41,3-7.61,4.39-5.21-.82ZM265,158.87l-1.41-3-1.42-3,7.61-4.39,5.22.81,5.21.82,1.41,3,1.42,3-7.61,4.39-5.22-.82Zm-13.76-8-1.42-3-1.41-3,7.61-4.39,5.21.82,5.22.81,1.41,3,1.41,3-7.6,4.39-5.22-.81ZM237.47,143l-1.41-3-1.41-3,7.6-4.39,5.22.82,5.21.81,1.41,3,1.42,3-7.61,4.39-5.21-.82ZM223.71,135l-1.41-3-1.42-3,7.61-4.39,5.21.81,5.22.82,1.41,3,1.41,3-7.6,4.39-5.22-.82Zm-13.77-8-1.41-3-1.41-3,7.6-4.39,5.22.82,5.21.81,1.42,3,1.41,3-7.61,4.39-5.21-.81Zm546.7,97.3-7.6,4.39-5.22-.82-5.21-.81-1.41-3-1.42-3,7.61-4.39,10.43,1.63Zm-13.76-7.95-7.61,4.39-5.21-.81-5.22-.82-1.41-3-1.41-3,7.6-4.39,10.43,1.63Zm-13.76-8-7.61,4.39-5.22-.81-5.21-.82-1.41-3-1.42-3,7.61-4.39,10.43,1.63Zm-13.77-7.94-7.6,4.39-5.22-.82-5.21-.81-1.42-3-1.41-3,7.61-4.39,10.43,1.63Zm-13.76-7.95L694,197l-5.21-.81-5.22-.82-1.41-3-1.41-3,7.6-4.39,10.43,1.63Zm-13.77-8-7.6,4.39-5.22-.81-5.21-.82-1.41-3-1.42-3,7.61-4.39L685,178.62Zm-13.76-7.94-7.61,4.39-5.21-.82-5.22-.81-1.41-3-1.41-3,7.6-4.39,10.44,1.63Zm-13.76-7.95-7.61,4.39-5.21-.81-5.22-.82-1.41-3-1.42-3L647,161.1l10.43,1.63Zm-13.77-7.95-7.6,4.39-5.22-.81-5.21-.82-1.42-3-1.41-3,7.61-4.39,10.43,1.63Zm-13.76-7.94-7.61,4.39-5.21-.82-5.22-.81-1.41-3-1.41-3,7.6-4.39,10.43,1.63Zm-13.77-8-7.6,4.39-5.22-.81-5.21-.82-1.41-3-1.42-3,7.61-4.39,10.43,1.63ZM605.24,137l-7.61,4.39-5.21-.81-5.22-.82-1.41-3-1.41-3,7.6-4.39,10.44,1.63ZM591.48,129l-7.61,4.39-5.21-.82-5.22-.81-1.41-3-1.42-3,7.61-4.39L588.65,123Zm-13.77-8-7.6,4.39-5.22-.81-5.21-.82-1.42-3-1.41-3,7.61-4.39,10.43,1.63ZM564,113.12l-7.61,4.39-5.21-.81-5.22-.82-1.41-3-1.41-3,7.6-4.39,10.43,1.63Zm-13.77-7.94-7.6,4.39-5.22-.82-5.21-.81-1.41-3-1.42-3,7.61-4.39,10.43,1.63Zm-13.76-8-7.61,4.39-5.21-.81-5.22-.82L517,97l-1.41-3,7.61-4.39,10.43,1.63Zm-13.76-8-7.61,4.39-5.21-.81L504.62,92l-1.41-3-1.41-3,7.6-4.39,10.43,1.63Zm-13.77-7.94-7.6,4.39-5.22-.82-5.21-.81-1.42-3-1.41-3,7.61-4.39,10.43,1.63Zm-13.76-8-7.61,4.39L482.31,77l-5.22-.82-1.41-3-1.41-3,7.6-4.39,10.43,1.63Zm-13.77-8-7.6,4.4L468.54,69l-5.21-.82-1.41-3-1.42-3,7.61-4.39,10.43,1.63ZM467.6,57.5,460,61.89l-5.22-.82-5.22-.81-1.41-3-1.41-3,7.61-4.4,10.43,1.63Zm-13.76-8-7.61,4.39L441,53.13l-5.22-.82-1.41-3-1.41-3,7.6-4.39L451,43.53ZM440.07,41.6l-7.6,4.4-5.22-.82L422,44.36l-1.42-3-1.41-3L426.82,34l10.43,1.63Zm-13.76-7.94-7.61,4.39-5.21-.82-5.22-.81-1.41-3-1.41-3,7.6-4.4,10.43,1.64Zm-13.76-7.95-7.61,4.39-5.22-.81-5.21-.82-1.41-3-1.42-3,7.61-4.39,10.43,1.63Zm-13.77-7.95-7.6,4.4L386,21.34l-5.22-.82-1.41-3-1.41-3,7.61-4.39L396,11.74ZM385,9.82l-7.61,4.39-5.21-.82L367,12.58l-1.41-3-1.41-3,7.6-4.4L382.19,3.8ZM371.25,1.87l-7.6,4.39-5.22-.81-5.21-.82-1.42-3-1.41-3L358-5.78l10.43,1.63ZM357.49-6.08l-7.61,4.4-5.21-.82-5.22-.82-1.41-3-1.41-3,7.6-4.39,10.43,1.63ZM343.73-14l-7.61,4.39-5.22-.82-5.21-.81-1.41-3-1.42-3,7.61-4.4L340.9-20ZM330-22l-7.6,4.39-5.22-.81-5.22-.82-1.41-3-1.41-3,7.61-4.39L327.14-28Zm-13.76-8-7.61,4.4-5.21-.82-5.22-.82-1.41-3-1.41-3,7.6-4.39,10.43,1.63Zm-27-15.6,10.43,1.64,2.82,6-7.6,4.39-5.22-.82-5.21-.81-2.83-6ZM265.49-31.84l10.43,1.63,1.41,3,1.41,3-7.6,4.39-5.22-.82-5.21-.81-2.83-6ZM241.8-18.16l10.43,1.63,1.41,3,1.41,3-7.6,4.4-5.22-.82L237-7.75l-2.82-6ZM218.1-4.48l10.44,1.63,1.41,3,1.41,3-7.6,4.39-5.22-.81-5.22-.82-2.82-6ZM194.41,9.2l10.43,1.63,1.42,3,1.41,3-7.61,4.39-5.21-.81-5.22-.82-2.82-6ZM170.72,22.87l10.43,1.64,1.42,3,1.41,3-7.61,4.39-5.21-.82-5.22-.81-2.82-6ZM147,36.55l10.43,1.63,1.41,3,1.42,3-7.61,4.39-5.21-.82L142.25,47l-2.82-6ZM123.34,50.23l10.43,1.63,1.41,3,1.42,3L129,62.28l-5.22-.82-5.21-.82-2.83-6ZM99.65,63.91l10.43,1.63,1.41,3,1.41,3L105.3,76l-5.22-.81-5.21-.82L92,68.3ZM76,77.59l10.43,1.63,1.41,3,1.41,3-7.6,4.39-5.22-.81L71.18,88l-2.83-6ZM52.27,91.27,62.7,92.9l1.41,3,1.41,3-7.6,4.39-5.22-.82-5.21-.81-2.83-6ZM28.58,104.94,39,106.57l1.41,3,1.41,3L34.23,117,29,116.17l-5.21-.81-2.83-6ZM4.88,118.62l10.44,1.63,1.41,3,1.41,3-7.6,4.4-5.22-.82L.1,129l-2.82-6ZM-18.81,132.3l10.43,1.63,1.42,3,1.41,3-7.61,4.39-5.21-.81-5.22-.82-2.82-6ZM-42.5,146l10.43,1.63,1.42,3,1.41,3L-36.85,158l-5.21-.81-5.22-.82-2.82-6Zm-31.29,18.07,7.6-4.39,10.43,1.63,1.41,3,1.42,3-7.61,4.39L-71,170.07ZM-60,172l7.61-4.39,5.21.82,5.22.81,1.41,3,1.41,3-7.6,4.39L-57.2,178Zm13.76,7.95,7.61-4.39,5.21.81,5.22.82,1.41,3,1.41,3-7.6,4.39L-43.44,186Zm13.77,7.95,7.6-4.39,5.22.81,5.21.82,1.42,3,1.41,3-7.61,4.39-10.43-1.63Zm13.76,7.94,7.61-4.39,5.21.82,5.22.81,1.41,3,1.41,3-7.6,4.39-10.43-1.64ZM-5,203.78l7.6-4.39,5.22.81,5.21.82,1.41,3,1.42,3-7.61,4.39L-2.15,209.8Zm13.76,7.95,7.6-4.39,5.22.81,5.22.82,1.41,3,1.41,3-7.6,4.39-10.43-1.63Zm13.76,7.94,7.61-4.39,5.21.82,5.22.81,1.41,3,1.41,3-7.6,4.39-10.43-1.64Zm13.77,8,7.6-4.39,5.22.81,5.21.82,1.42,3,1.41,3-7.61,4.39-10.43-1.63Zm13.76,7.95,7.61-4.39,5.21.81,5.22.82,1.41,3,1.41,3-7.6,4.39-10.43-1.63Zm13.77,7.94,7.6-4.39,5.22.82,5.21.81,1.41,3,1.42,3-7.61,4.39-10.43-1.64Zm13.76,8,7.6-4.39,5.22.81,5.22.82,1.41,3,1.41,3-7.6,4.39-10.44-1.63Zm13.76,8L99,255l5.21.81,5.22.82,1.41,3,1.41,3-7.6,4.39L94.2,265.43Zm13.77,7.94,7.6-4.39,5.22.82,5.21.81,1.42,3,1.41,3-7.61,4.4L108,273.37Zm13.76,7.95,7.61-4.39,5.21.81,5.22.82,1.41,3,1.41,3-7.6,4.39-10.43-1.63Zm13.76,7.95,7.61-4.4,5.22.82,5.21.82,1.41,3,1.42,3-7.61,4.39-10.43-1.63Zm13.77,7.94,7.6-4.39,5.22.82,5.22.81,1.41,3,1.41,3-7.6,4.4-10.44-1.64Zm13.76,7.95,7.61-4.39,5.21.81,5.22.82,1.41,3,1.41,3-7.6,4.39L163,305.16ZM174,307.09l7.6-4.4,5.22.82,5.21.82,1.42,3,1.41,3-7.61,4.39-10.43-1.63ZM187.72,315l7.61-4.39,5.21.82,5.22.81,1.41,3,1.41,3-7.6,4.4-10.43-1.64Zm13.76,8,7.61-4.39,5.22.81,5.21.82,1.41,3,1.42,3-7.61,4.39L204.31,329Zm13.77,7.95,7.6-4.4,5.22.82,5.21.82,1.42,3,1.41,3-7.61,4.39L218.07,337ZM229,338.87l7.61-4.39,5.21.82,5.22.81,1.41,3,1.41,3-7.6,4.4-10.43-1.64Zm13.77,7.95,7.6-4.39,5.22.81,5.21.82,1.42,3,1.41,3L256,354.47l-10.43-1.63Zm13.76,7.95,7.61-4.4,5.21.82,5.22.82,1.41,3,1.41,3-7.6,4.39-10.43-1.63Zm13.76,7.94,7.61-4.39,5.22.82,5.21.81,1.41,3,1.42,3-7.61,4.4-10.43-1.64Zm13.77,8,7.6-4.39,5.22.81,5.21.82,1.42,3,1.41,3-7.61,4.39-10.43-1.63Zm13.76,7.95,7.61-4.4,5.21.82,5.22.82,1.41,3,1.41,3-7.6,4.39-10.43-1.63Zm13.77,7.94,7.6-4.39,5.22.82,5.21.81,1.41,3,1.42,3-7.61,4.39-10.43-1.63Zm13.76,7.95,7.61-4.39,5.21.81,5.22.82,1.41,3,1.41,3-7.6,4.39-10.43-1.63Zm13.76,7.95,7.61-4.4,5.22.82,5.21.82,1.41,3,1.42,3-7.61,4.39L342,408.47Zm13.77,7.94,7.6-4.39,5.22.82,5.21.81,1.42,3,1.41,3L366.14,418l-10.43-1.63Zm13.76,7.95,7.61-4.39,5.21.81,5.22.82,1.41,3,1.41,3-7.6,4.39-10.43-1.63Zm13.77,8,7.6-4.4,5.22.82,5.21.82,1.41,3,1.42,3-7.61,4.39-10.43-1.63Zm27,15.59L397,440.25l-2.83-6,7.61-4.39,5.21.82,5.22.81,2.82,6Zm23.69-13.67-10.43-1.63-1.42-3-1.41-3,7.61-4.39,5.21.82,5.22.81,2.82,6Zm23.69-13.68-10.43-1.63-1.41-3-1.42-3,7.61-4.4,5.21.82,5.22.82,2.82,6Zm23.69-13.68-10.43-1.63-1.41-3-1.42-3,7.61-4.39,5.21.81,5.22.82,2.82,6Zm23.69-13.68-10.43-1.63-1.41-3-1.42-3,7.61-4.39,5.22.81,5.21.82,2.83,6Zm23.69-13.68-10.43-1.63-1.41-3-1.41-3,7.6-4.39,5.22.82,5.21.81,2.83,6Zm23.69-13.67-10.43-1.63-1.41-3-1.41-3,7.6-4.39,5.22.82,5.21.81,2.83,6Zm23.69-13.68-10.43-1.63-1.41-3-1.41-3,7.6-4.39,5.22.82,5.21.82,2.83,6ZM597,332.46l-10.43-1.63-1.41-3-1.41-3,7.6-4.39,5.22.81,5.22.82,2.82,6Zm23.7-13.68-10.43-1.63-1.42-3-1.41-3,7.61-4.39,5.21.81,5.22.82,2.82,6Zm23.69-13.68-10.43-1.63-1.42-3-1.41-3,7.61-4.39,5.21.82,5.22.81,2.82,6ZM668,291.43l-10.43-1.63-1.42-3-1.41-3,7.61-4.39,5.21.82,5.22.81,2.82,6Zm23.69-13.68-10.43-1.63-1.41-3-1.42-3,7.61-4.39,5.21.82,5.22.81,2.82,6Zm23.69-13.68L705,262.44l-1.41-3-1.42-3,7.61-4.39,5.22.81,5.21.82,2.83,6Zm23.69-13.68-10.43-1.63-1.41-3-1.41-3,7.6-4.39,5.22.81,5.21.82,2.83,6Z" transform="translate(74.59 45.98)"/></g></g></g></g></g></svg>